<svg width="31" height="20" viewBox="0 0 31 20" fill="none" xmlns="http://www.w3.org/2000/svg">
<g clip-path="url(#clip0_78_93)">
<path d="M0.0262768 3.85514C0.0262768 1.53125 1.52195 0 3.78949 0H27.2073C29.4748 0 30.9705 1.53125 30.9705 3.85514C30.9705 3.85514 32.3778 20.0016 15.524 20.0016C-1.33301 20 0.0262768 3.85514 0.0262768 3.85514Z" fill="#0072CE"/>
<path d="M3.78949 2.32547H27.2073C28.2271 2.32547 28.7029 2.81312 28.7029 3.85514V3.95679L28.7091 4.06163C28.7153 4.11087 29.1447 10.0278 25.6062 13.9624C23.3898 16.426 19.997 17.6761 15.524 17.6761C11.0447 17.6761 7.64725 16.426 5.42156 13.9592C1.87224 10.023 2.28452 4.10611 2.28762 4.04734L2.29692 3.95521V3.85514C2.29692 2.81312 2.76964 2.32547 3.78949 2.32547ZM3.78949 0C1.52196 0 0.0262809 1.53125 0.0262809 3.85514C0.0262809 3.85514 -1.333 20.0016 15.5224 20.0016C32.3778 20.0016 30.9689 3.85514 30.9689 3.85514C30.9689 1.53125 29.4748 0 27.2073 0H3.78949Z" fill="#0072CE"/>
<path d="M9.1012 15.133V3.41353H11.4958V12.9997H17.1639V15.133H9.1012V15.133Z" fill="white"/>
<path d="M17.2631 15.2379H8.9989V3.3087H11.5966V12.8949H17.2631V15.2379ZM9.20194 15.0298H17.0631V13.103H11.3951V3.5152H9.20194V15.0298Z" fill="white"/>
<path d="M19.6609 15.133V7.03199H17.3174V5.44196C17.8103 5.44196 18.2256 5.40225 18.5589 5.31806C18.8921 5.23705 19.1649 5.10998 19.3757 4.94002C19.5865 4.77005 19.7477 4.55879 19.8577 4.30464C19.9662 4.05208 20.039 3.75504 20.0731 3.41353H21.9021V15.133H19.6609V15.133Z" fill="white"/>
<path d="M21.9997 15.2379H19.5601V7.13524H17.2166V5.34031H17.3158C17.8009 5.34031 18.2086 5.3006 18.5325 5.21959C18.8502 5.14176 19.1106 5.02103 19.3137 4.85901C19.5105 4.69858 19.6624 4.49844 19.7647 4.26335C19.867 4.02191 19.9367 3.73281 19.9708 3.40242L19.9801 3.3087H21.9997V15.2379V15.2379ZM19.76 15.0298H21.7966V3.5152H20.1615C20.1227 3.82812 20.053 4.10768 19.9491 4.34436C19.8344 4.61281 19.6608 4.83995 19.4346 5.01945C19.2129 5.19894 18.9231 5.33237 18.5805 5.41973C18.2628 5.49757 17.8722 5.53886 17.415 5.54363V6.92716H19.7585V15.0298H19.76Z" fill="white"/>
</g>
<defs>
<clipPath id="clip0_78_93">
<rect width="31" height="20" fill="white"/>
</clipPath>
</defs>
</svg>
