<svg width="30" height="16" viewBox="0 0 30 16" fill="none" xmlns="http://www.w3.org/2000/svg">
<rect x="0.5" y="0.5" width="29" height="15" rx="2.5" fill="white" stroke="black"/>
<path d="M11.2676 5.92969C11.2676 6.79688 10.9707 7.46484 10.377 7.93359C9.78711 8.39844 8.94141 8.63086 7.83984 8.63086H6.83203V12H5.83594V3.43359H8.05664C10.1973 3.43359 11.2676 4.26562 11.2676 5.92969ZM6.83203 7.77539H7.72852C8.61133 7.77539 9.25 7.63281 9.64453 7.34766C10.0391 7.0625 10.2363 6.60547 10.2363 5.97656C10.2363 5.41016 10.0508 4.98828 9.67969 4.71094C9.30859 4.43359 8.73047 4.29492 7.94531 4.29492H6.83203V7.77539ZM17.9004 9.7207C17.9004 10.4746 17.627 11.0625 17.0801 11.4844C16.5332 11.9062 15.791 12.1172 14.8535 12.1172C13.8379 12.1172 13.0566 11.9863 12.5098 11.7246V10.7637C12.8613 10.9121 13.2441 11.0293 13.6582 11.1152C14.0723 11.2012 14.4824 11.2441 14.8887 11.2441C15.5527 11.2441 16.0527 11.1191 16.3887 10.8691C16.7246 10.6152 16.8926 10.2637 16.8926 9.81445C16.8926 9.51758 16.832 9.27539 16.7109 9.08789C16.5938 8.89648 16.3945 8.7207 16.1133 8.56055C15.8359 8.40039 15.4121 8.21875 14.8418 8.01562C14.0449 7.73047 13.4746 7.39258 13.1309 7.00195C12.791 6.61133 12.6211 6.10156 12.6211 5.47266C12.6211 4.8125 12.8691 4.28711 13.3652 3.89648C13.8613 3.50586 14.5176 3.31055 15.334 3.31055C16.1855 3.31055 16.9688 3.4668 17.6836 3.7793L17.373 4.64648C16.666 4.34961 15.9785 4.20117 15.3105 4.20117C14.7832 4.20117 14.3711 4.31445 14.0742 4.54102C13.7773 4.76758 13.6289 5.08203 13.6289 5.48438C13.6289 5.78125 13.6836 6.02539 13.793 6.2168C13.9023 6.4043 14.0859 6.57812 14.3438 6.73828C14.6055 6.89453 15.0039 7.06836 15.5391 7.25977C16.4375 7.58008 17.0547 7.92383 17.3906 8.29102C17.7305 8.6582 17.9004 9.13477 17.9004 9.7207ZM21.7383 6.76758C22.6406 6.76758 23.3496 6.99219 23.8652 7.44141C24.3848 7.88672 24.6445 8.49805 24.6445 9.27539C24.6445 10.1621 24.3613 10.8574 23.7949 11.3613C23.2324 11.8652 22.4551 12.1172 21.4629 12.1172C20.498 12.1172 19.7617 11.9629 19.2539 11.6543V10.7168C19.5273 10.8926 19.8672 11.0312 20.2734 11.1328C20.6797 11.2305 21.0801 11.2793 21.4746 11.2793C22.1621 11.2793 22.6953 11.1172 23.0742 10.793C23.457 10.4688 23.6484 10 23.6484 9.38672C23.6484 8.19141 22.916 7.59375 21.4512 7.59375C21.0801 7.59375 20.584 7.65039 19.9629 7.76367L19.459 7.44141L19.7812 3.43359H24.041V4.33008H20.6133L20.3965 6.90234C20.8457 6.8125 21.293 6.76758 21.7383 6.76758Z" fill="black"/>
</svg>
