<svg width="30" height="16" viewBox="0 0 30 16" fill="none" xmlns="http://www.w3.org/2000/svg">
<rect x="0.5" y="0.5" width="29" height="15" rx="2.5" fill="#1F1F1F" stroke="#383838"/>
<path d="M8.07422 3.43359C9.17969 3.43359 9.98633 3.65039 10.4941 4.08398C11.0059 4.51367 11.2617 5.13086 11.2617 5.93555C11.2617 6.29883 11.2012 6.64453 11.0801 6.97266C10.9629 7.29688 10.7715 7.58398 10.5059 7.83398C10.2402 8.08008 9.89062 8.27539 9.45703 8.41992C9.02734 8.56055 8.5 8.63086 7.875 8.63086H6.83203V12H5.83594V3.43359H8.07422ZM7.98047 4.2832H6.83203V7.77539H7.76367C8.31055 7.77539 8.76562 7.7168 9.12891 7.59961C9.49609 7.48242 9.77148 7.29297 9.95508 7.03125C10.1387 6.76562 10.2305 6.41406 10.2305 5.97656C10.2305 5.40625 10.0488 4.98242 9.68555 4.70508C9.32227 4.42383 8.75391 4.2832 7.98047 4.2832ZM17.8887 9.7207C17.8887 10.2285 17.7617 10.6621 17.5078 11.0215C17.2578 11.377 16.9062 11.6484 16.4531 11.8359C16 12.0234 15.4668 12.1172 14.8535 12.1172C14.5293 12.1172 14.2227 12.1016 13.9336 12.0703C13.6445 12.0391 13.3789 11.9941 13.1367 11.9355C12.8945 11.877 12.6816 11.8047 12.498 11.7188V10.7637C12.791 10.8848 13.1484 10.998 13.5703 11.1035C13.9922 11.2051 14.4336 11.2559 14.8945 11.2559C15.3242 11.2559 15.6875 11.1992 15.9844 11.0859C16.2812 10.9688 16.5059 10.8027 16.6582 10.5879C16.8145 10.3691 16.8926 10.1074 16.8926 9.80273C16.8926 9.50977 16.8281 9.26562 16.6992 9.07031C16.5703 8.87109 16.3555 8.69141 16.0547 8.53125C15.7578 8.36719 15.3516 8.19336 14.8359 8.00977C14.4727 7.88086 14.1523 7.74023 13.875 7.58789C13.5977 7.43164 13.3652 7.25586 13.1777 7.06055C12.9902 6.86523 12.8477 6.63867 12.75 6.38086C12.6562 6.12305 12.6094 5.82812 12.6094 5.49609C12.6094 5.03906 12.7246 4.64844 12.9551 4.32422C13.1895 3.99609 13.5117 3.74609 13.9219 3.57422C14.3359 3.39844 14.8105 3.31055 15.3457 3.31055C15.8027 3.31055 16.2246 3.35352 16.6113 3.43945C17.002 3.52539 17.3594 3.64062 17.6836 3.78516L17.373 4.64062C17.0645 4.51172 16.7363 4.4043 16.3887 4.31836C16.0449 4.23242 15.6895 4.18945 15.3223 4.18945C14.9551 4.18945 14.6445 4.24414 14.3906 4.35352C14.1406 4.45898 13.9492 4.60938 13.8164 4.80469C13.6836 5 13.6172 5.23242 13.6172 5.50195C13.6172 5.80273 13.6797 6.05273 13.8047 6.25195C13.9336 6.45117 14.1367 6.62891 14.4141 6.78516C14.6953 6.9375 15.0664 7.09766 15.5273 7.26562C16.0312 7.44922 16.459 7.64453 16.8105 7.85156C17.1621 8.05469 17.4297 8.30469 17.6133 8.60156C17.7969 8.89453 17.8887 9.26758 17.8887 9.7207ZM25.1016 10.0137H23.8184V12H22.8691V10.0137H18.7266V9.19336L22.8047 3.38672H23.8184V9.13477H25.1016V10.0137ZM22.8691 9.13477V6.33398C22.8691 6.11914 22.8711 5.92578 22.875 5.75391C22.8789 5.57812 22.8848 5.41602 22.8926 5.26758C22.9004 5.11523 22.9062 4.9707 22.9102 4.83398C22.918 4.69727 22.9238 4.5625 22.9277 4.42969H22.8809C22.8066 4.58594 22.7207 4.75195 22.623 4.92773C22.5293 5.09961 22.4336 5.25391 22.3359 5.39062L19.6934 9.13477H22.8691Z" fill="#C4C4C4"/>
</svg>
