<svg width="20" height="10" viewBox="0 0 20 10" fill="none" xmlns="http://www.w3.org/2000/svg">
<path d="M6.26758 2.92969C6.26758 3.79688 5.9707 4.46484 5.37695 4.93359C4.78711 5.39844 3.94141 5.63086 2.83984 5.63086H1.83203V9H0.835938V0.433594H3.05664C5.19727 0.433594 6.26758 1.26562 6.26758 2.92969ZM1.83203 4.77539H2.72852C3.61133 4.77539 4.25 4.63281 4.64453 4.34766C5.03906 4.0625 5.23633 3.60547 5.23633 2.97656C5.23633 2.41016 5.05078 1.98828 4.67969 1.71094C4.30859 1.43359 3.73047 1.29492 2.94531 1.29492H1.83203V4.77539ZM12.9004 6.7207C12.9004 7.47461 12.627 8.0625 12.0801 8.48438C11.5332 8.90625 10.791 9.11719 9.85352 9.11719C8.83789 9.11719 8.05664 8.98633 7.50977 8.72461V7.76367C7.86133 7.91211 8.24414 8.0293 8.6582 8.11523C9.07227 8.20117 9.48242 8.24414 9.88867 8.24414C10.5527 8.24414 11.0527 8.11914 11.3887 7.86914C11.7246 7.61523 11.8926 7.26367 11.8926 6.81445C11.8926 6.51758 11.832 6.27539 11.7109 6.08789C11.5938 5.89648 11.3945 5.7207 11.1133 5.56055C10.8359 5.40039 10.4121 5.21875 9.8418 5.01562C9.04492 4.73047 8.47461 4.39258 8.13086 4.00195C7.79102 3.61133 7.62109 3.10156 7.62109 2.47266C7.62109 1.8125 7.86914 1.28711 8.36523 0.896484C8.86133 0.505859 9.51758 0.310547 10.334 0.310547C11.1855 0.310547 11.9688 0.466797 12.6836 0.779297L12.373 1.64648C11.666 1.34961 10.9785 1.20117 10.3105 1.20117C9.7832 1.20117 9.37109 1.31445 9.07422 1.54102C8.77734 1.76758 8.62891 2.08203 8.62891 2.48438C8.62891 2.78125 8.68359 3.02539 8.79297 3.2168C8.90234 3.4043 9.08594 3.57812 9.34375 3.73828C9.60547 3.89453 10.0039 4.06836 10.5391 4.25977C11.4375 4.58008 12.0547 4.92383 12.3906 5.29102C12.7305 5.6582 12.9004 6.13477 12.9004 6.7207ZM16.7383 3.76758C17.6406 3.76758 18.3496 3.99219 18.8652 4.44141C19.3848 4.88672 19.6445 5.49805 19.6445 6.27539C19.6445 7.16211 19.3613 7.85742 18.7949 8.36133C18.2324 8.86523 17.4551 9.11719 16.4629 9.11719C15.498 9.11719 14.7617 8.96289 14.2539 8.6543V7.7168C14.5273 7.89258 14.8672 8.03125 15.2734 8.13281C15.6797 8.23047 16.0801 8.2793 16.4746 8.2793C17.1621 8.2793 17.6953 8.11719 18.0742 7.79297C18.457 7.46875 18.6484 7 18.6484 6.38672C18.6484 5.19141 17.916 4.59375 16.4512 4.59375C16.0801 4.59375 15.584 4.65039 14.9629 4.76367L14.459 4.44141L14.7812 0.433594H19.041V1.33008H15.6133L15.3965 3.90234C15.8457 3.8125 16.293 3.76758 16.7383 3.76758Z" fill="black"/>
</svg>
