<svg width="21" height="10" viewBox="0 0 21 10" fill="none" xmlns="http://www.w3.org/2000/svg">
<path d="M3.07422 0.433594C4.17969 0.433594 4.98633 0.650391 5.49414 1.08398C6.00586 1.51367 6.26172 2.13086 6.26172 2.93555C6.26172 3.29883 6.20117 3.64453 6.08008 3.97266C5.96289 4.29688 5.77148 4.58398 5.50586 4.83398C5.24023 5.08008 4.89062 5.27539 4.45703 5.41992C4.02734 5.56055 3.5 5.63086 2.875 5.63086H1.83203V9H0.835938V0.433594H3.07422ZM2.98047 1.2832H1.83203V4.77539H2.76367C3.31055 4.77539 3.76562 4.7168 4.12891 4.59961C4.49609 4.48242 4.77148 4.29297 4.95508 4.03125C5.13867 3.76562 5.23047 3.41406 5.23047 2.97656C5.23047 2.40625 5.04883 1.98242 4.68555 1.70508C4.32227 1.42383 3.75391 1.2832 2.98047 1.2832ZM12.8887 6.7207C12.8887 7.22852 12.7617 7.66211 12.5078 8.02148C12.2578 8.37695 11.9062 8.64844 11.4531 8.83594C11 9.02344 10.4668 9.11719 9.85352 9.11719C9.5293 9.11719 9.22266 9.10156 8.93359 9.07031C8.64453 9.03906 8.37891 8.99414 8.13672 8.93555C7.89453 8.87695 7.68164 8.80469 7.49805 8.71875V7.76367C7.79102 7.88477 8.14844 7.99805 8.57031 8.10352C8.99219 8.20508 9.43359 8.25586 9.89453 8.25586C10.3242 8.25586 10.6875 8.19922 10.9844 8.08594C11.2812 7.96875 11.5059 7.80273 11.6582 7.58789C11.8145 7.36914 11.8926 7.10742 11.8926 6.80273C11.8926 6.50977 11.8281 6.26562 11.6992 6.07031C11.5703 5.87109 11.3555 5.69141 11.0547 5.53125C10.7578 5.36719 10.3516 5.19336 9.83594 5.00977C9.47266 4.88086 9.15234 4.74023 8.875 4.58789C8.59766 4.43164 8.36523 4.25586 8.17773 4.06055C7.99023 3.86523 7.84766 3.63867 7.75 3.38086C7.65625 3.12305 7.60938 2.82812 7.60938 2.49609C7.60938 2.03906 7.72461 1.64844 7.95508 1.32422C8.18945 0.996094 8.51172 0.746094 8.92188 0.574219C9.33594 0.398438 9.81055 0.310547 10.3457 0.310547C10.8027 0.310547 11.2246 0.353516 11.6113 0.439453C12.002 0.525391 12.3594 0.640625 12.6836 0.785156L12.373 1.64062C12.0645 1.51172 11.7363 1.4043 11.3887 1.31836C11.0449 1.23242 10.6895 1.18945 10.3223 1.18945C9.95508 1.18945 9.64453 1.24414 9.39062 1.35352C9.14062 1.45898 8.94922 1.60938 8.81641 1.80469C8.68359 2 8.61719 2.23242 8.61719 2.50195C8.61719 2.80273 8.67969 3.05273 8.80469 3.25195C8.93359 3.45117 9.13672 3.62891 9.41406 3.78516C9.69531 3.9375 10.0664 4.09766 10.5273 4.26562C11.0312 4.44922 11.459 4.64453 11.8105 4.85156C12.1621 5.05469 12.4297 5.30469 12.6133 5.60156C12.7969 5.89453 12.8887 6.26758 12.8887 6.7207ZM20.1016 7.01367H18.8184V9H17.8691V7.01367H13.7266V6.19336L17.8047 0.386719H18.8184V6.13477H20.1016V7.01367ZM17.8691 6.13477V3.33398C17.8691 3.11914 17.8711 2.92578 17.875 2.75391C17.8789 2.57812 17.8848 2.41602 17.8926 2.26758C17.9004 2.11523 17.9062 1.9707 17.9102 1.83398C17.918 1.69727 17.9238 1.5625 17.9277 1.42969H17.8809C17.8066 1.58594 17.7207 1.75195 17.623 1.92773C17.5293 2.09961 17.4336 2.25391 17.3359 2.39062L14.6934 6.13477H17.8691Z" fill="black"/>
</svg>
