<svg width="20" height="21" viewBox="0 0 20 21" fill="none" xmlns="http://www.w3.org/2000/svg">
<g id="PS Now">
<path id="BG" fill-rule="evenodd" clip-rule="evenodd" d="M3.05262 0.00448284C4.03745 -0.029402 5.01947 0.129067 5.94441 0.47113H6.059V0.499795H6.14511V0.529127H6.23055V0.557792H6.31665V0.586459H6.45972V0.615124H6.54582V0.644457H6.63193V0.671122H6.71737V0.699787L6.88958 0.729119V0.757784H6.94654V0.786451H7.03264V0.815783H7.08696V0.844448L7.25916 0.873113V0.902446H7.31613V0.931111L7.48767 0.959776V0.988443H7.5506V1.01777H7.6367V1.04644H7.69366V1.0751L7.83673 1.10444V1.1331H7.92283V1.16177H7.97979V1.1911H8.0659V1.21977H8.12286V1.24843H8.20897V1.2771L8.32355 1.30643V1.33776H8.40965V1.36643H8.46662V1.39576L8.63883 1.45309V1.48242H8.72427V1.51109H8.78189V1.53775L8.95344 1.59575V1.62441H9.03954V1.65308H9.09651V1.68241H9.15413V1.71108H9.20646V1.73774H9.29256V1.76708H9.34952V1.79574H9.43563V1.82441L9.60717 1.88241V1.91107H9.6701V1.93974L9.78468 1.96907V1.99773H9.8688V2.0264H9.92642V2.05573L10.041 2.0844V2.11306H10.098V2.14239H10.1556V2.17106H10.2126V2.20439H10.2662V2.23372H10.3232V2.26239H10.3801V2.29105H10.4378V2.31972H10.4947L10.5523 2.37772H10.6093L10.6384 2.43571H10.6954L10.7524 2.49305H10.81V2.52238H10.867V2.55104H10.9285V2.57971H10.9855V2.60437H11.0431V2.63371L11.1577 2.66237C11.167 2.6817 11.1763 2.70104 11.1862 2.72037H11.2432L11.3008 2.7777H11.3577V2.80703H11.4154V2.8357H11.4723V2.86436H11.53V2.8937H11.5869L11.6439 2.95103H11.7015L11.73 3.00902L11.9022 3.06635C11.9115 3.08569 11.9207 3.10502 11.9307 3.12435L12.1022 3.18235C12.1122 3.20102 12.1214 3.22035 12.1307 3.23968L12.3029 3.29768L12.3314 3.35501L12.5029 3.41301L12.5321 3.47101H12.5844V3.49967H12.6414L12.6705 3.55767L12.8421 3.615V3.64366L12.9282 3.673L12.9566 3.73033L13.0712 3.75966C13.0805 3.77899 13.0904 3.79766 13.0997 3.81699L13.2143 3.84632L13.2428 3.90365H13.3004V3.93299H13.3574V3.96165L13.4435 3.99032L13.4719 4.04831L13.5865 4.07698L13.615 4.13498L13.7296 4.16364C13.7395 4.18298 13.7488 4.20231 13.7581 4.22164L13.8727 4.25031L13.9011 4.30764H13.9588L13.9872 4.36564H14.0449V4.3943L14.1303 4.42363L14.1595 4.48096H14.2164L14.2449 4.53896H14.3025C14.3118 4.55829 14.3211 4.57763 14.331 4.59696H14.388C14.3979 4.61563 14.4072 4.63496 14.4171 4.65429H14.4741L14.5026 4.71229H14.5602C14.5694 4.73162 14.5794 4.75029 14.5887 4.76962H14.6456V4.79895L14.7317 4.82762L14.7602 4.88561H14.8178L14.8463 4.94294H14.9033V4.97161L14.9894 5.00094L15.0179 5.05827H15.0755L15.1324 5.14493H15.1901L15.2185 5.20293H15.2755V5.2316L15.3616 5.26093C15.3716 5.2796 15.3808 5.29893 15.3901 5.31826H15.4477L15.4762 5.37626L15.5623 5.40493L15.6193 5.49159H15.6769C15.6862 5.51092 15.6954 5.53025 15.7054 5.54958H15.7623L15.82 5.63558H15.8769L15.9345 5.72224H15.9915L16.0491 5.80891H16.1061L16.1922 5.9249H16.2491L16.3353 6.04023L16.4214 6.0689C16.4306 6.08823 16.4399 6.10756 16.4498 6.12689H16.5068L16.5929 6.24222H16.6499L16.736 6.35755H16.7929L16.879 6.47288H16.9367L17.0221 6.58887H17.0797L17.1943 6.73287H17.2513L17.3943 6.9062H17.452L17.6235 7.10619H17.6811L17.9096 7.36618H17.9673L18.2249 7.65483L18.7687 8.17414V8.23214L18.9979 8.43213V8.49013L19.0548 8.5188V8.54746L19.1409 8.60546V8.67079L19.2271 8.72879V8.78678L19.3132 8.84411V8.90211L19.3986 8.96011V9.01744L19.4562 9.04611C19.4655 9.07544 19.4748 9.1041 19.4847 9.13277H19.5132V9.19077L19.5708 9.21943V9.27743H19.5993V9.33476L19.6562 9.36409C19.6662 9.40276 19.6755 9.44076 19.6847 9.47942H19.7139V9.53742H19.7423V9.59475H19.7708V9.65275H19.7993L19.8569 9.82607H19.8854C19.8947 9.88341 19.9046 9.9414 19.9139 9.9994H19.943C19.9523 10.0854 19.9616 10.1721 19.9715 10.2587H20V10.692H19.9715V10.836H19.943V10.952C19.8472 11.1636 19.7516 11.3751 19.6562 11.5867L19.5993 11.616C19.5894 11.654 19.5801 11.6927 19.5708 11.7313H19.5417C19.5324 11.76 19.5231 11.7887 19.5132 11.818L19.4562 11.8467V11.9047L19.3986 11.9333V11.9913L19.3416 12.02V12.0773L19.284 12.1066C19.2747 12.1353 19.2648 12.164 19.2555 12.1933L19.1409 12.28V12.3373L19.0548 12.3953V12.424L18.9979 12.4526V12.5106L18.7687 12.7106V12.7686L18.4826 13.0286L17.9673 13.5766H17.9096L17.6811 13.8366H17.6235V13.8652L17.5374 13.9232L17.452 14.0386H17.3943L17.2513 14.2119H17.1943L17.1652 14.2699H17.1367L17.0797 14.3566H17.0221L16.9367 14.4719H16.879L16.7929 14.5872H16.736L16.6499 14.7025H16.5929L16.5068 14.8179H16.4498L16.3922 14.9045H16.3353C16.3253 14.9239 16.316 14.9432 16.3068 14.9625H16.2776C16.2684 14.9819 16.2591 15.0012 16.2491 15.0205H16.1922C16.163 15.0585 16.1346 15.0972 16.1061 15.1359H16.0491L15.9915 15.2225H15.9345L15.8769 15.3092H15.82L15.7623 15.3952H15.7054C15.6954 15.4145 15.6862 15.4338 15.6769 15.4532H15.6193L15.565 15.5372H15.5073L15.4788 15.5952H15.4219L15.3643 15.6818H15.3073C15.2974 15.7005 15.2881 15.7198 15.2782 15.7392H15.2212V15.7678L15.1351 15.7972L15.1066 15.8545H15.0496L14.992 15.9412H14.9351L14.9059 15.9991L14.8205 16.0278V16.0571H14.7629L14.7344 16.1145H14.6774L14.6483 16.1725H14.5913C14.582 16.1918 14.5721 16.2105 14.5628 16.2298H14.5052L14.4767 16.2878H14.4198L14.3906 16.3458H14.3337C14.3237 16.3645 14.3144 16.3838 14.3052 16.4031H14.2476L14.2191 16.4611H14.1621C14.1522 16.4805 14.1429 16.4998 14.133 16.5185H14.076C14.0661 16.5378 14.0568 16.5571 14.0475 16.5765H13.9899L13.9614 16.6345H13.9038L13.8753 16.6918L13.7607 16.7211L13.7322 16.7785L13.6177 16.8071L13.5892 16.8651H13.5322V16.8938H13.4746V16.9231L13.3885 16.9518C13.3792 16.9711 13.3699 16.9904 13.36 17.0098H13.303V17.0384H13.2467L13.2183 17.0958L13.1037 17.1251L13.0752 17.1824L12.9606 17.2118L12.9321 17.2691L12.8176 17.2984L12.7891 17.3558L12.6745 17.3851C12.6645 17.4038 12.6553 17.4231 12.6453 17.4424L12.4738 17.5004C12.4645 17.5198 12.4546 17.5384 12.4453 17.5578L12.2731 17.6157C12.2638 17.6351 12.2546 17.6544 12.2446 17.6737L12.13 17.7024C12.1208 17.7217 12.1115 17.7411 12.1016 17.7597L11.93 17.8177C11.9201 17.8371 11.9108 17.8564 11.9015 17.8757H11.8439L11.7869 17.9331H11.7293V17.9624H11.6724L11.6432 18.0197H11.5578L11.5293 18.0777H11.4717L11.4147 18.1351H11.3571V18.1644H11.3001L11.2425 18.2217H11.1855C11.1756 18.2411 11.1663 18.2604 11.1571 18.2797L11.0425 18.3084L10.9848 18.3664H10.9285V18.3951H10.8709V18.4237H10.814V18.453H10.7563V18.4817L10.6424 18.5104L10.5848 18.5684H10.5278L10.4987 18.6264H10.4417L10.3841 18.6837H10.3271V18.713H10.2662V18.7417H10.2086V18.7704H10.1516V18.8037L9.97941 18.8617V18.8904H9.89397V18.9197L9.77938 18.9484V18.977H9.72176V19.0037H9.6701V19.0324L9.49789 19.0904V19.119H9.41244V19.1477L9.29786 19.1764V19.2037H9.20646V19.2323H9.1495V19.261L9.03491 19.2903V19.319H8.9488V19.3477H8.89184V19.377L8.77726 19.4057V19.4343H8.69115V19.463L8.57657 19.4923V19.521H8.49046V19.5497L8.37654 19.579V19.6077H8.29043V19.6363L8.17585 19.6657V19.6943H8.08975V19.723H8.03278V19.7523H7.948V19.781L7.83342 19.8097V19.8383H7.7493V19.8703H7.69168V19.899L7.52013 19.9277V19.957H7.4625V19.9856L7.31944 20.0143V20.0436L7.14789 20.0723V20.101H7.08696V20.1296L6.8293 20.1876V20.2163H6.77234V20.2456H6.68955V20.2703H6.60345V20.299H6.51734V20.3283H6.43124V20.357H6.31665V20.3856H6.20207V20.415H6.11662V20.4436H6.03052V20.4723H5.94441V20.501L5.74571 20.5303V20.559L5.54701 20.5876V20.617L5.31784 20.6456V20.6743H5.20325V20.7036H5.08867V20.737H4.97408V20.7656H4.86016V20.7943H4.71643V20.8236L3.94016 20.9369H3.5103C2.96983 20.9369 2.66449 20.8863 2.33597 20.677L2.22204 20.6483L2.13594 20.533H2.07832C2.06904 20.5136 2.05977 20.4943 2.04984 20.475L1.87829 20.331V20.2703L1.7637 20.1836V20.1256L1.70608 20.097V20.0396L1.64912 20.0103C1.63985 19.9723 1.62991 19.9337 1.62063 19.895L1.56301 19.8663C1.5438 19.8083 1.52526 19.7503 1.50605 19.693L1.44843 19.6643V19.6063H1.41995C1.41067 19.5677 1.40074 19.5297 1.39147 19.491H1.36299V19.4043H1.33384V19.3463H1.30536V19.289H1.27688C1.25767 19.231 1.23846 19.173 1.21992 19.1157H1.1921C1.18283 19.0577 1.17356 19.0004 1.16362 18.9424H1.13514V18.8844H1.10666L1.04904 18.625H1.02055V18.5384H0.993398V18.4517H0.964917V18.365H0.935774V18.2784H0.907294C0.898021 18.2117 0.888086 18.1451 0.878814 18.0784H0.850333V17.9637H0.82119V17.8771H0.792706V17.7611H0.764225V17.6751H0.735745V17.5304H0.706602V17.4151H0.678122V17.2998H0.649641V17.1838H0.621161C0.611226 17.0878 0.601954 16.9918 0.592681 16.8951H0.563537C0.573473 16.8664 0.582746 16.8378 0.592681 16.8085H0.563537V16.6645H0.535057V16.5198H0.506577C0.496642 16.4145 0.487365 16.3085 0.478093 16.2025H0.448953V16.0292C0.402589 15.8732 0.382717 15.6372 0.335028 15.4805V15.2498H0.305885V15.0499H0.277405V14.8185H0.248924L0.191301 14.0392H0.162821V13.7506H0.132351V13.4039H0.103871V12.9999H0.0747278C0.0654549 12.7591 0.0559618 12.5186 0.0462475 12.2786V11.9607C-0.0372078 11.6593 0.0177672 11.0274 0.0177672 10.662V9.56275C0.0177672 9.37343 0.00584453 9.1281 0.0462475 8.98544C0.0959232 8.81078 0.0303507 8.53613 0.0747278 8.3788V7.91749H0.103871V7.54217H0.132351V7.19552H0.160832V6.90686C0.248261 6.60288 0.218458 6.19556 0.3039 5.89624C0.313835 5.75224 0.323108 5.60758 0.333043 5.46359H0.361524V5.29026H0.390004V5.09027H0.418484V4.91694C0.517836 4.58763 0.560888 4.11365 0.617187 3.90632V3.76233H0.645667V3.64433H0.674148V3.529H0.702628V3.38501H0.731771V3.27101H0.760252C0.779459 3.16502 0.79867 3.05902 0.817216 2.95303H0.846359C0.864905 2.85703 0.884112 2.76037 0.90332 2.66437H0.9318V2.57771H0.960943V2.49105H0.993398V2.40438H1.02188V2.31772H1.05036L1.10798 2.0584H1.13646V2.0004H1.16495V1.91374H1.1921V1.85641H1.22124V1.76974H1.24972C1.26893 1.71175 1.28748 1.65375 1.30668 1.59642H1.33517V1.53775H1.36431V1.48042H1.3908L1.41928 1.33576L1.47691 1.3071V1.2491H1.50539V1.19177L1.56235 1.13377V1.07577L1.61998 1.04711C1.62925 1.00844 1.63918 0.970443 1.64846 0.931778H1.67694L1.70542 0.845114L1.76304 0.816449V0.758451L1.90611 0.643122V0.585125L2.05315 0.47113C2.06308 0.451798 2.07235 0.432465 2.08163 0.413133H2.13925C2.15846 0.384467 2.17767 0.355801 2.19621 0.326469H2.25185L2.28033 0.269139H2.33729L2.36643 0.211141H2.4234V0.182476H2.5095V0.153809H2.56646V0.124477L3.05262 0.00448284Z" fill="#0072CE"/>
<path id="PS" d="M14.3953 12.4703C14.1529 12.7776 13.5601 12.9969 13.5601 12.9969L9.15083 14.5908V13.4122L12.3963 12.2483C12.7646 12.1149 12.8215 11.9276 12.5222 11.829C12.2228 11.7303 11.6823 11.7623 11.314 11.8956L9.1515 12.6623V11.4383L9.27602 11.3963C9.76482 11.2374 10.2687 11.1299 10.7795 11.0757C11.6578 10.9783 12.7341 11.089 13.5786 11.409C14.5297 11.7136 14.6377 12.1603 14.3953 12.4703ZM9.57076 10.4704V7.46381C9.57076 7.11116 9.50453 6.78584 9.17336 6.69385C8.921 6.61252 8.76469 6.84851 8.76469 7.20116V14.7248L6.74719 14.0802V5.10325C7.60824 5.26324 8.85477 5.64256 9.52903 5.87055C11.2372 6.46052 11.8168 7.19516 11.8168 8.85109C11.8181 10.465 10.8279 11.0763 9.57076 10.465V10.4704ZM3.04668 13.2889C2.06906 13.0122 1.90679 12.4349 2.35188 12.103C2.76386 11.7956 3.46395 11.565 3.46395 11.565L6.3584 10.5297V11.7096L4.27665 12.4596C3.90905 12.5929 3.85275 12.7803 4.15147 12.8789C4.45018 12.9776 4.99132 12.9496 5.35958 12.8163L6.3584 12.4516V13.5076C6.29216 13.5189 6.22593 13.5302 6.15969 13.5409C5.11704 13.7114 4.04886 13.6249 3.04668 13.2889Z" fill="white"/>
</g>
</svg>
