<svg width="31" height="20" viewBox="0 0 31 20" fill="none" xmlns="http://www.w3.org/2000/svg">
<g clip-path="url(#clip0_78_117)">
<path d="M30.9745 3.85422C30.9745 1.53089 29.4801 0 27.2138 0H3.79096C1.52308 0 0.0302853 1.53089 0.0302853 3.85422C0.0302853 3.85422 -1.37726 20 15.4807 20C32.3355 20 30.9745 3.85422 30.9745 3.85422Z" fill="#0072CE"/>
<path d="M27.2138 2.32492C28.2323 2.32492 28.7066 2.81245 28.7066 3.85422L28.7082 3.95426L28.7144 4.04637C28.7206 4.10513 29.1329 10.0191 25.5815 13.959C23.3555 16.4253 19.9575 17.6751 15.4791 17.6751C11.0007 17.6751 7.60899 16.4253 5.39227 13.9622C1.85482 10.0254 2.28576 4.11148 2.28886 4.06225L2.29816 3.95744V3.85422C2.29816 2.81245 2.77406 2.32492 3.79251 2.32492H27.2138ZM27.2138 0H3.79096C1.52308 0 0.0302853 1.53089 0.0302853 3.85422C0.0302853 3.85422 -1.37726 20 15.4807 20C32.3371 20 30.976 3.85422 30.976 3.85422C30.9745 1.53089 29.4801 0 27.2138 0Z" fill="#0072CE"/>
<path d="M14.914 15.1326V12.1121C14.914 11.5484 14.7869 11.145 14.5358 10.902C14.2816 10.6638 13.8119 10.54 13.1221 10.54H10.5721V15.1326H8.24683V3.41275H14.0506C14.5808 3.41275 15.0598 3.49851 15.4923 3.66843C15.9216 3.83835 16.2921 4.07497 16.6022 4.37511C16.9122 4.67367 17.1509 5.03257 17.3183 5.45182C17.4842 5.86948 17.5664 6.3189 17.5664 6.80166C17.5664 7.43689 17.4206 7.99906 17.1277 8.48818C16.8362 8.97572 16.413 9.32032 15.8627 9.51883C16.3681 9.68558 16.7277 9.93808 16.9385 10.2795C17.1525 10.6209 17.2579 11.1323 17.2579 11.8152V15.1358H14.914V15.1326ZM10.5721 5.44229V8.566H13.5701C14.2149 8.566 14.666 8.4199 14.9326 8.1261C15.1962 7.83073 15.3279 7.46071 15.3279 7.01288C15.3279 6.55552 15.1993 6.17915 14.9404 5.88377C14.6815 5.58839 14.2537 5.44229 13.6584 5.44229H10.5721Z" fill="white"/>
<path d="M17.3571 15.2343H14.8149V12.1121C14.8149 11.5785 14.697 11.1974 14.4661 10.9767C14.2336 10.7559 13.7825 10.6448 13.1221 10.6448H10.6728V15.2343H8.14764V3.30794H14.0522C14.5916 3.30794 15.0877 3.39846 15.5279 3.57156C15.9682 3.74624 16.3542 3.9908 16.6719 4.29889C16.9913 4.60697 17.2393 4.98175 17.4114 5.41053C17.5819 5.8393 17.6687 6.30619 17.6687 6.80008C17.6687 7.45118 17.5152 8.03717 17.2145 8.54059C16.9556 8.97095 16.596 9.2965 16.1418 9.51407C16.5417 9.68399 16.8378 9.92061 17.0238 10.2208C17.2471 10.5781 17.3587 11.1148 17.3587 11.812V15.2343H17.3571ZM15.0148 15.0294H17.1571V11.812C17.1571 11.1545 17.0564 10.6543 16.8564 10.3319C16.6564 10.0127 16.3108 9.77292 15.8333 9.6157L15.5481 9.52201L15.8302 9.42037C16.3573 9.23139 16.7665 8.89631 17.044 8.43101C17.3261 7.96253 17.4672 7.41307 17.4672 6.80008C17.4672 6.33478 17.385 5.8933 17.2254 5.48834C17.0641 5.08656 16.8316 4.73719 16.5355 4.44975C16.2348 4.15914 15.8705 3.92887 15.4551 3.76371C15.0396 3.59855 14.5653 3.51597 14.0506 3.51597H8.34606V15.0294H10.4713V10.4383H13.1205C13.8429 10.4383 14.3266 10.5685 14.6025 10.829C14.8753 11.0894 15.0133 11.5214 15.0133 12.1137V15.0294H15.0148ZM13.5701 8.66763H10.4729V5.33906H13.6584C14.2816 5.33906 14.7389 5.49946 15.0148 5.81389C15.2908 6.12674 15.4303 6.53011 15.4303 7.01129C15.4303 7.48453 15.2877 7.88154 15.0071 8.1928C14.7234 8.50883 14.2398 8.66763 13.5701 8.66763ZM10.6728 8.46277H13.5701C14.1824 8.46277 14.6149 8.3262 14.8567 8.05305C15.1016 7.77991 15.2257 7.42895 15.2257 7.01129C15.2257 6.58092 15.1047 6.2252 14.866 5.95205C14.6288 5.6805 14.2212 5.54392 13.6584 5.54392H10.6728V8.46277Z" fill="white"/>
<path d="M20.5117 15.1326V7.03035H18.1694V5.44229C18.6608 5.44229 19.0762 5.40259 19.4095 5.31842C19.7428 5.23743 20.0156 5.11038 20.2264 4.94046C20.4419 4.77054 20.6 4.55774 20.7116 4.30524C20.8201 4.05115 20.8914 3.75418 20.9271 3.41275H22.7532V15.1326H20.5117Z" fill="white"/>
<path d="M22.8524 15.2343H20.4124V7.13198H18.0686V5.33906H18.1694C18.653 5.33906 19.0623 5.29936 19.3847 5.21837C19.704 5.14056 19.966 5.01828 20.1675 4.85947C20.3659 4.69749 20.5194 4.49898 20.6202 4.26236C20.724 4.01939 20.7938 3.73036 20.8279 3.40163L20.8372 3.30794H22.8539V15.2343H22.8524ZM20.614 15.0294H22.6524V3.51597H21.0154C20.9782 3.82564 20.9054 4.10514 20.8015 4.34335C20.6868 4.61332 20.5132 4.84041 20.29 5.01986C20.0668 5.19931 19.7784 5.33271 19.4327 5.41688C19.1165 5.49628 18.7259 5.53757 18.2701 5.54392V6.92712H20.6124V15.0294H20.614Z" fill="white"/>
</g>
<defs>
<clipPath id="clip0_78_117">
<rect width="31" height="20" fill="white"/>
</clipPath>
</defs>
</svg>
