<svg width="31" height="20" viewBox="0 0 31 20" fill="none" xmlns="http://www.w3.org/2000/svg">
<path d="M20.6159 0.690552H16.699C16.3343 0.690552 15.9832 0.83616 15.7141 1.09825L11.2318 5.46648C11.2273 5.47134 11.2227 5.48105 11.2182 5.4859C10.4612 6.24306 10.4749 7.4516 11.1224 8.20391C11.7015 8.87856 12.919 9.05814 13.6805 8.33496C13.685 8.3301 13.6941 8.3301 13.6987 8.32525L17.342 4.77242C17.6384 4.48606 18.1035 4.50547 18.3725 4.82096C18.6461 5.13644 18.6233 5.62665 18.3269 5.91787L17.1368 7.07788L23.7759 12.8148C23.9081 12.9313 24.0267 13.0575 24.1361 13.1885V3.79685L21.6464 1.14679C21.3774 0.855574 21.0035 0.690552 20.6159 0.690552ZM25.5998 3.80656V14.6737C25.5998 15.5328 26.2518 16.2269 27.0589 16.2269H29.9772V3.80656H25.5998ZM27.7885 14.6737C27.3872 14.6737 27.0589 14.3243 27.0589 13.8972C27.0589 13.4701 27.3872 13.1206 27.7885 13.1206C28.1898 13.1206 28.5181 13.4701 28.5181 13.8972C28.5181 14.3243 28.1898 14.6737 27.7885 14.6737ZM0.794434 16.222H3.71271C4.5198 16.222 5.17185 15.528 5.17185 14.6689V3.80656H0.794434V16.222ZM2.98314 13.1206C3.3844 13.1206 3.71271 13.4701 3.71271 13.8972C3.71271 14.3243 3.3844 14.6737 2.98314 14.6737C2.58188 14.6737 2.25357 14.3243 2.25357 13.8972C2.25357 13.4652 2.58188 13.1206 2.98314 13.1206ZM22.8593 14.0234L16.0516 8.14081L14.6836 9.47555C13.3293 10.7909 11.2546 10.6647 10.0463 9.26199C8.8197 7.83504 8.91545 5.62665 10.2469 4.32589L13.9768 0.690552H10.1557C9.76814 0.690552 9.39879 0.855574 9.1252 1.14679L6.63099 3.79685V14.664H7.46543L11.5921 18.6391C12.8414 19.7215 14.679 19.5176 15.6959 18.1877L15.705 18.178L16.5212 18.9303C17.2462 19.5613 18.3178 19.44 18.906 18.6683L20.3378 16.7948L20.584 17.0083C21.2087 17.5471 22.1298 17.45 22.6359 16.7802L23.0691 16.2123C23.5798 15.5425 23.484 14.567 22.8593 14.0234Z" fill="url(#paint0_linear_17_144)" stroke="white" stroke-width="0.5"/>
<defs>
<linearGradient id="paint0_linear_17_144" x1="3.49951" y1="-0.999879" x2="36.4995" y2="15.5001" gradientUnits="userSpaceOnUse">
<stop stop-color="#C54A92"/>
<stop offset="1" stop-color="#2E62EB"/>
</linearGradient>
</defs>
</svg>
