<svg width="24" height="21" viewBox="0 0 24 21" fill="none" xmlns="http://www.w3.org/2000/svg">
<path fill-rule="evenodd" clip-rule="evenodd" d="M4.09859 1.93262C2.38729 1.93262 1 3.3199 1 5.03121V17.4256C1 19.1369 2.38729 20.5242 4.09859 20.5242H16.493C18.2043 20.5242 19.5915 19.1369 19.5915 17.4256V5.03121C19.5915 4.53134 19.4732 4.05911 19.263 3.64103C18.7335 2.54417 17.7338 2.17875 17.5736 2.12628C17.2372 2.00106 16.8731 1.93262 16.493 1.93262H4.09859ZM17.5736 2.12628C17.5594 2.1216 17.5518 2.11941 17.5518 2.11941C15.9907 3.57571 14.8396 4.85631 13.7132 6.10949C12.9984 6.90466 12.2936 7.6888 11.5002 8.49978L10.027 6.74631C8.91997 5.47603 7.00353 5.3531 5.74648 6.47176C4.48943 7.59041 4.36779 9.52703 5.47479 10.7973L9.57521 15.4917C10.153 16.1547 10.9857 16.5335 11.8599 16.531C12.7341 16.5285 13.5647 16.145 14.1387 15.4787L19.5912 9.21419V5.18608C19.5912 4.55603 19.4595 4.04815 19.263 3.64103C18.9133 2.94572 18.3096 2.40017 17.5736 2.12628Z" fill="url(#paint0_linear_35_11)"/>
<path d="M17.5518 2.11941L17.621 1.87919L17.4848 1.83995L17.3812 1.93661L17.5518 2.11941ZM13.7132 6.10949L13.8991 6.27661L13.7132 6.10949ZM11.5002 8.49978L11.3088 8.6606L11.4861 8.87167L11.6789 8.67461L11.5002 8.49978ZM10.027 6.74631L10.2184 6.58547L10.2154 6.58206L10.027 6.74631ZM5.74648 6.47176L5.58029 6.285L5.74648 6.47176ZM5.47479 10.7973L5.28632 10.9616L5.2865 10.9618L5.47479 10.7973ZM9.57521 15.4917L9.76368 15.3275L9.7635 15.3273L9.57521 15.4917ZM11.8599 16.531L11.8606 16.781L11.8599 16.531ZM14.1387 15.4787L13.9501 15.3146L13.9493 15.3155L14.1387 15.4787ZM19.5912 9.21419L19.7798 9.37833L19.8412 9.30775V9.21419H19.5912ZM1.25 5.03121C1.25 3.45797 2.52536 2.18262 4.09859 2.18262V1.68262C2.24922 1.68262 0.75 3.18183 0.75 5.03121H1.25ZM1.25 17.4256V5.03121H0.75V17.4256H1.25ZM4.09859 20.2742C2.52536 20.2742 1.25 18.9988 1.25 17.4256H0.75C0.75 19.275 2.24921 20.7742 4.09859 20.7742V20.2742ZM16.493 20.2742H4.09859V20.7742H16.493V20.2742ZM19.3415 17.4256C19.3415 18.9988 18.0662 20.2742 16.493 20.2742V20.7742C18.3423 20.7742 19.8415 19.275 19.8415 17.4256H19.3415ZM19.3415 5.03121V17.4256H19.8415V5.03121H19.3415ZM19.0396 3.75335C19.2327 4.13737 19.3415 4.57122 19.3415 5.03121H19.8415C19.8415 4.49146 19.7137 3.98085 19.4863 3.52872L19.0396 3.75335ZM17.4958 2.36385C17.6334 2.40896 18.5528 2.7449 19.0378 3.74972L19.4881 3.53235C18.9142 2.34343 17.8341 1.94854 17.6515 1.88871L17.4958 2.36385ZM16.493 2.18262C16.8428 2.18262 17.1774 2.24558 17.4864 2.36058L17.6608 1.89198C17.2969 1.75653 16.9033 1.68262 16.493 1.68262V2.18262ZM4.09859 2.18262H16.493V1.68262H4.09859V2.18262ZM17.5518 2.11941C17.4825 2.35963 17.4825 2.35963 17.4825 2.35963C17.4825 2.35963 17.4825 2.35963 17.4825 2.35962C17.4825 2.35962 17.4825 2.35962 17.4825 2.35962C17.4824 2.35961 17.4824 2.3596 17.4824 2.3596C17.4824 2.35959 17.4823 2.35958 17.4823 2.35957C17.4822 2.35954 17.4822 2.35953 17.4821 2.35951C17.482 2.35948 17.4819 2.35945 17.4818 2.35944C17.4817 2.3594 17.4817 2.3594 17.4819 2.35944C17.4821 2.35951 17.4828 2.35971 17.4839 2.36006C17.4862 2.36075 17.4902 2.362 17.4958 2.36385L17.6515 1.88871C17.6429 1.88588 17.6359 1.8837 17.6308 1.88212C17.6282 1.88134 17.6261 1.8807 17.6245 1.88022C17.6237 1.87997 17.623 1.87976 17.6224 1.87959C17.6221 1.87951 17.6218 1.87943 17.6216 1.87937C17.6215 1.87933 17.6214 1.8793 17.6213 1.87927C17.6212 1.87926 17.6212 1.87924 17.6211 1.87923C17.6211 1.87922 17.6211 1.87922 17.6211 1.87921C17.6211 1.87921 17.621 1.8792 17.621 1.8792C17.621 1.8792 17.621 1.8792 17.621 1.8792C17.621 1.87919 17.621 1.87919 17.5518 2.11941ZM13.8991 6.27661C15.0255 5.02346 16.1701 3.75024 17.7223 2.30221L17.3812 1.93661C15.8113 3.40118 14.6537 4.68916 13.5273 5.94236L13.8991 6.27661ZM11.6789 8.67461C12.4765 7.85929 13.1847 7.07134 13.8991 6.27661L13.5273 5.94236C12.8121 6.73799 12.1106 7.51831 11.3215 8.32496L11.6789 8.67461ZM9.83556 6.90713L11.3088 8.6606L11.6916 8.33896L10.2184 6.58549L9.83556 6.90713ZM5.91268 6.65851C7.06559 5.63254 8.82267 5.74489 9.8385 6.91056L10.2154 6.58206C9.01728 5.20716 6.94148 5.07367 5.58029 6.285L5.91268 6.65851ZM5.66327 10.6331C4.64611 9.46588 4.75825 7.68585 5.91268 6.65851L5.58029 6.285C4.22062 7.49497 4.08947 9.58818 5.28632 10.9616L5.66327 10.6331ZM9.7635 15.3273L5.66308 10.6329L5.2865 10.9618L9.38692 15.6562L9.7635 15.3273ZM11.8592 16.281C11.058 16.2833 10.2941 15.9362 9.76368 15.3275L9.38673 15.656C10.0118 16.3732 10.9134 16.7837 11.8606 16.781L11.8592 16.281ZM13.9493 15.3155C13.4223 15.9272 12.6603 16.2787 11.8592 16.281L11.8606 16.781C12.8078 16.7783 13.7071 16.3627 14.3281 15.6419L13.9493 15.3155ZM19.4027 9.05006L13.9501 15.3146L14.3273 15.6428L19.7798 9.37833L19.4027 9.05006ZM19.3412 5.18608V9.21419H19.8412V5.18608H19.3412ZM19.0378 3.74972C19.2173 4.12159 19.3412 4.59214 19.3412 5.18608H19.8412C19.8412 4.51992 19.7016 3.97471 19.4881 3.53235L19.0378 3.74972ZM17.4864 2.36058C18.1627 2.61228 18.7181 3.11398 19.0396 3.75335L19.4863 3.52872C19.1085 2.77747 18.4564 2.18806 17.6608 1.89198L17.4864 2.36058Z" fill="white"/>
<path fill-rule="evenodd" clip-rule="evenodd" d="M22.3472 1.45573C23.1389 2.12809 23.2219 3.29919 22.5327 4.07145L12.896 14.3634C12.5363 14.7665 12.0158 14.9985 11.4679 15C10.9201 15.0015 10.3983 14.7724 10.0362 14.3713L6.32974 10.1167C5.63601 9.34826 5.71224 8.17672 6.5 7.5C7.28776 6.82328 8.48875 6.89764 9.18247 7.66609L11.4544 10.3317L19.6658 1.63662C20.355 0.864361 21.5556 0.783374 22.3472 1.45573Z" fill="url(#paint1_linear_35_11)" stroke="white" stroke-width="0.5"/>
<defs>
<linearGradient id="paint0_linear_35_11" x1="2.72333" y1="0.246992" x2="26.5692" y2="7.86443" gradientUnits="userSpaceOnUse">
<stop stop-color="#C54A92"/>
<stop offset="1" stop-color="#2E62EB"/>
</linearGradient>
<linearGradient id="paint1_linear_35_11" x1="7.37164" y1="1.91266" x2="25.4414" y2="9.01352" gradientUnits="userSpaceOnUse">
<stop stop-color="#C54A92"/>
<stop offset="1" stop-color="#2E62EB"/>
</linearGradient>
</defs>
</svg>
