<svg width="53" height="53" viewBox="0 0 53 53" fill="none" xmlns="http://www.w3.org/2000/svg">
<path id="Vector" d="M0.210938 33.1603C1.96561 33.0793 3.45033 32.4044 4.6651 31.1357C5.87987 29.8669 6.50076 28.3552 6.50076 26.6005C6.50076 28.3552 7.09464 29.8669 8.30942 31.1357C9.52419 32.4044 11.0089 33.0793 12.7636 33.1603C11.0089 33.2413 9.52419 33.9162 8.30942 35.1849C7.72211 35.783 7.25972 36.4921 6.9492 37.2707C6.63868 38.0493 6.48624 38.8819 6.50076 39.7201C6.50076 37.9654 5.90687 36.4537 4.6651 35.1849C3.45033 33.9162 1.96561 33.2413 0.210938 33.1603ZM6.50076 13.724C9.90212 13.562 12.7906 12.2392 15.1661 9.7557C17.5417 7.27217 18.7295 4.32972 18.7295 0.901367C18.7295 4.32972 19.9172 7.27217 22.2928 9.7557C24.6683 12.2392 27.5568 13.535 30.9852 13.724C28.7446 13.8319 26.693 14.4528 24.8033 15.6406C22.9407 16.8014 21.4559 18.3671 20.3492 20.3107C19.2694 22.2544 18.7295 24.333 18.7295 26.6005C18.7295 23.1722 17.5417 20.2027 15.1661 17.7192C12.7906 15.2087 9.90212 13.8859 6.50076 13.724ZM15.4631 42.7975C18.0276 42.6895 20.2142 41.6907 21.9958 39.8281C23.7775 37.9654 24.6683 35.7518 24.6683 33.1603C24.6683 35.7518 25.5592 37.9654 27.3408 39.8281C29.1225 41.6907 31.2821 42.6895 33.8466 42.7975C31.2821 42.9055 29.1225 43.9043 27.3408 45.7669C25.5592 47.6296 24.6683 49.8432 24.6683 52.4347C24.6683 49.8432 23.7775 47.6296 21.9958 45.7669C20.293 43.9572 17.9462 42.8905 15.4631 42.7975ZM33.8466 30.0019C36.4111 29.8939 38.5707 28.8951 40.3524 27.0325C42.1341 25.1698 42.9979 22.9562 42.9979 20.3377C42.9979 22.9292 43.8887 25.1428 45.6704 27.0055C47.4521 28.8681 49.6386 29.8669 52.2032 29.9749C49.6386 30.0829 47.4521 31.0817 45.6704 32.9443C43.8887 34.807 42.9979 37.0206 42.9979 39.6121C42.9979 37.0206 42.1071 34.807 40.3524 32.9443C38.5707 31.1087 36.4111 30.1099 33.8466 30.0019Z" fill="white"/>
</svg>
