<?xml version="1.0" encoding="utf-8"?>
<!-- Generator: Adobe Illustrator 26.3.1, SVG Export Plug-In . SVG Version: 6.00 Build 0)  -->
<svg version="1.1" id="Capa_1" xmlns="http://www.w3.org/2000/svg" xmlns:xlink="http://www.w3.org/1999/xlink" x="0px" y="0px"
	 viewBox="0 0 86 79" style="enable-background:new 0 0 86 79;" xml:space="preserve">
<g>
	<path d="M41.7,13.7c0-0.9-0.1-1.1-1.1-1.1c-2.5,0-5,0-7.4,0c-4.8,0-9.7,0-14.5,0c-0.6,0-1.1,0-1.1,0.8c0,1.2,0,2.3,0,3.5
		c0,0.5,0.3,0.8,0.8,0.8c0.2,0,0.4,0,0.6,0.1c0,0.2,0,0.3,0,0.4c0.2,5.8,0.3,11.5,0.5,17.3c0.2,6.9,0.4,13.9,0.6,20.8
		c0,0.5,0.2,1.3,0.6,1.5c0.8,0.5,0.7,1.2,0.7,1.9c0,0.7,0,1.4,0,2.1v4.3h0c0.1,0.5,0.3,1,0.5,1.4h15.5c0.1-0.5,0.3-1.1,0.4-1.6
		c0-2.4,0-4.7,0-7c0-0.2,0.1-0.4,0.3-0.5c0.7-0.5,1-1.2,1-2c0.3-11,0.6-21.9,0.9-32.9c0-1.8,0-3.6,0-5.3c1.6-0.2,1.6-0.2,1.6-1.7
		C41.7,15.3,41.7,14.5,41.7,13.7z M36.6,65.9H22.7v-1.2h13.9V65.9z M32,60.9c-1.6,0-3.1,0-4.7,0c-0.6,0-0.9,0.3-0.8,0.9
		c0,0.5,0,1,0,1.6h-3.7v-5h13.8v5h-3.8c0-0.5,0-1.1,0-1.6C32.8,61.2,32.6,60.9,32,60.9z M31.5,62.2v1.2h-3.7v-1.2H31.5z M38.3,43.7
		c-0.1,4-0.2,8.1-0.4,12.1c0,1.1-0.2,1.2-1.2,1.2c-4.7,0-9.4,0-14.2,0c-1,0-1.2-0.1-1.2-1.1c-0.3-10.7-0.6-21.4-0.9-32
		c-0.1-2,0-4.1,0-6.2h18.5c0,0.2,0,0.4,0,0.6C38.7,26.8,38.5,35.3,38.3,43.7z M40.4,16.4H18.9v-2.4h21.4V16.4z"/>
	<g>
		<path d="M44.5,67.5c-0.8-0.2-1.6-0.5-2.2-1.1c-0.6-0.7-0.9-1.5-0.9-2.3c0-4.1,0-8.3,0-12.4c0-2.7,1.1-4.9,3.1-6.6
			c0.2-0.2,0.3-0.4,0.3-0.8c0-2.4,0-4.9,0-7.3c0-0.8,0.2-1,1-1c0.4,0,0.9,0.1,1.2-0.1c0.3-0.2,0.3-0.7,0.4-1.1
			c0.1-0.2,0.1-0.4,0.1-0.7c-0.1-1.6-0.1-3.2,0.2-4.8c0.1-0.6,0.3-1.1,0.5-1.6c0.4-0.8,1.1-1.3,2-1.3c0.9,0,1.6,0.5,2,1.4
			c0.4,0.9,0.6,1.8,0.7,2.7c0.1,1.2,0,2.4,0,3.6c0,0.6,0.3,1.2,0.4,1.8c0,0.1,0.2,0.1,0.3,0.1c0.3,0,0.6,0,1,0c0.8,0,1,0.2,1,1
			c0,2.5,0,4.9,0,7.4c0,0.3,0.1,0.4,0.3,0.6c2.1,1.8,3.1,4.1,3.2,6.9c0,4,0,8,0,12.1c0,1.9-1.1,3.2-2.9,3.6c0,0-0.1,0-0.1,0.1
			C52.3,67.5,48.4,67.5,44.5,67.5z M48.3,45.5c-0.7,0-1.3,0-2,0c-0.2,0-0.4,0.1-0.5,0.2c-2,1.6-3,3.6-3,6.1c0,4,0,8,0,12
			c0,1.4,0.8,2.3,2.3,2.3c3.5,0,7.1,0,10.6,0c1.4,0,2.2-0.9,2.2-2.2c0-4,0-8,0-12.1c0-2.5-1-4.6-3-6.1c-0.1-0.1-0.2-0.2-0.3-0.2
			c-0.7,0-1.4,0-2.2,0c0,0.2,0,0.4,0,0.6c0,4.9,0,9.9,0,14.8c0,0.2,0,0.4,0,0.6c-0.1,1.3-1.4,2.1-2.6,1.7c-0.9-0.3-1.5-1.1-1.5-2.2
			c0-5,0-10,0-15C48.3,45.9,48.3,45.7,48.3,45.5z M46.2,44.1c2.8,0,5.5,0,8.2,0c0-2.3,0-4.5,0-6.8c-2.7,0-5.5,0-8.2,0
			C46.2,39.6,46.2,41.8,46.2,44.1z M49.6,45.5c0,0.2,0,0.3,0,0.5c0,5,0,10,0,15c0,0.7,0.2,1,0.7,1c0.5,0,0.7-0.3,0.7-1
			c0-5,0-10,0-15c0-0.1,0-0.3,0-0.4C50.5,45.5,50.1,45.5,49.6,45.5z M52.2,35.9c-0.7-1.1-0.4-2.3-0.4-3.5c0-0.8-0.1-1.7-0.1-2.5
			c-0.1-0.7-0.2-1.3-0.6-1.9c-0.4-0.5-0.9-0.5-1.3,0c-0.2,0.3-0.4,0.6-0.5,1c-0.4,1.3-0.4,2.6-0.3,3.9c0,1,0.1,1.9-0.3,2.8
			c0,0,0,0.1,0,0.1C49.8,35.9,50.9,35.9,52.2,35.9z"/>
	</g>
	<g>
		<path d="M59.6,16c0-1.1,0-2.1,0-3.1c0-1,0.5-1.4,1.4-1.4c1.2,0,2.3,0,3.5,0c1,0,1.4,0.5,1.4,1.4c0,1,0,2,0,3.1c0.2,0,0.3,0,0.4,0
			c0.9,0,1.8,0,2.8,0c0.9,0,1.3,0.5,1.3,1.3c0,1.2,0,2.4,0,3.6c0,0.8-0.5,1.3-1.3,1.3c-1,0-2.1,0-3.2,0c0,0.2,0,0.3,0,0.4
			c0,0.9,0,1.8,0,2.8c0,0.8-0.5,1.3-1.3,1.3c-1.2,0-2.4,0-3.6,0c-0.8,0-1.3-0.5-1.3-1.3c0-1,0-2.1,0-3.2c-0.2,0-0.3,0-0.4,0
			c-0.9,0-1.8,0-2.8,0c-0.8,0-1.3-0.5-1.3-1.3c0-1.2,0-2.5,0-3.7c0-0.8,0.5-1.3,1.3-1.3c0.9,0,1.8,0,2.8,0C59.3,16,59.4,16,59.6,16z
			 M60.7,14.7c0,0.6,0,1.2,0,1.7c0,0.5-0.2,0.7-0.7,0.7c-1.1,0-2.3,0-3.4,0c-0.3,0-0.4,0.1-0.4,0.4c0,1.1,0,2.2,0,3.3
			c0,0.3,0.1,0.4,0.4,0.4c1.1,0,2.3,0,3.4,0c0.6,0,0.8,0.1,0.8,0.8c0,1.1,0,2.3,0,3.4c0,0.3,0.1,0.4,0.4,0.4c1.1,0,2.3,0,3.4,0
			c0.3,0,0.4-0.1,0.4-0.4c0-1.1,0-2.3,0-3.4c0-0.6,0.1-0.7,0.7-0.7c1.1,0,2.3,0,3.4,0c0.3,0,0.4-0.1,0.4-0.4c0-1.1,0-2.3,0-3.4
			c0-0.3-0.1-0.4-0.4-0.4c-1.1,0-2.2,0-3.3,0c-0.6,0-0.8-0.1-0.8-0.8c0-1.1,0-2.3,0-3.4c0-0.2,0-0.4-0.3-0.4c-1.2,0-2.3,0-3.5,0
			c-0.2,0-0.3,0.1-0.3,0.3C60.7,13.5,60.7,14.1,60.7,14.7z"/>
	</g>
</g>
</svg>
