<?xml version="1.0" encoding="utf-8"?>
<!-- Generator: Adobe Illustrator 26.3.1, SVG Export Plug-In . SVG Version: 6.00 Build 0)  -->
<svg version="1.1" id="Capa_1" xmlns="http://www.w3.org/2000/svg" xmlns:xlink="http://www.w3.org/1999/xlink" x="0px" y="0px"
	 viewBox="0 0 86 79" style="enable-background:new 0 0 86 79;" xml:space="preserve">
<style type="text/css">
	.st0{fill:#141414;}
</style>
<g>
	<g>
		<path class="st0" d="M56.7,37.7c-1.6-0.3-3.1-0.6-4.6-0.9c-0.5-0.1-0.8-0.3-0.9-0.8c-0.1-0.6,0.4-1.1,1.2-0.9
			c1.4,0.3,2.8,0.6,4.2,0.9c0.2,0,0.3,0.1,0.6,0.2c0.3-0.8,0.5-1.5,0.7-2.2c-0.2-0.1-0.4-0.1-0.5-0.1c-1.5-0.3-3-0.6-4.5-1
			c-0.7-0.1-1-0.5-0.9-1.1c0.1-0.5,0.5-0.8,1.2-0.6c1.7,0.4,3.5,0.7,5.3,1.1c0.2-0.7,0.4-1.4,0.7-2.2c-1.6-0.3-3.2-0.6-4.8-0.9
			c-0.3-0.1-0.6-0.1-0.9-0.2c-0.6-0.1-0.9-0.6-0.7-1.1c0.1-0.5,0.6-0.7,1.1-0.6c1.7,0.3,3.4,0.7,5.1,1.1c0.2,0,0.4,0.1,0.6,0.2
			c0.2-0.9,0.4-1.6,0.5-2.3c-0.2-0.1-0.4-0.1-0.5-0.1c-1.6-0.3-3.3-0.7-4.9-1c-0.9-0.2-1.3-0.5-1.2-1.1c0.1-0.6,0.6-0.8,1.6-0.6
			c1.6,0.3,3.2,0.7,4.8,1c0.2,0,0.4,0.1,0.6,0.1c0.1-0.8,0.2-1.5,0.3-2.3c-1.7-0.3-3.5-0.7-5.2-1c-0.2,0-0.5-0.1-0.7-0.2
			c-0.5-0.1-0.8-0.6-0.7-1c0.1-0.5,0.5-0.8,1-0.7c1.1,0.2,2.1,0.4,3.2,0.7c0.8,0.2,1.5,0.3,2.4,0.5c0-0.6,0-1.1-0.1-1.6
			c-0.1-0.6-0.6-0.9-1.2-1c-1.3-0.2-2.6-0.5-3.9-0.7c-1.2-0.2-1.9-1-2-2.1c0-1.1,0.7-1.9,1.9-2.2c0.8-0.2,1.7-0.3,2.5-0.5
			c4.9-1,9.4,1.5,11.3,6.1c1,2.4,1,5,0.7,7.5C69.6,31.2,68,36.3,66,41.2c-0.9,2.3-2.1,4.6-3.5,6.7c-0.9,1.3-1.3,2.9-1.6,4.5
			c-0.1,0.6-0.2,1.3-0.3,1.9c-0.1,0.6-0.5,1-1,0.9c-0.5-0.1-0.8-0.5-0.7-1.1c0.4-2.9,1.2-5.6,2.9-8.1c2-2.9,3.2-6.3,4.3-9.6
			c1.2-3.7,2.3-7.5,2.6-11.5c0.2-2.1,0-4.2-0.9-6.2c-1.6-3.5-5.2-5.4-8.9-4.7c-0.9,0.2-1.9,0.3-2.8,0.6c-0.2,0.1-0.4,0.3-0.6,0.5
			c0.2,0.1,0.4,0.4,0.6,0.4c1.3,0.3,2.5,0.5,3.8,0.7c1.6,0.3,2.5,1.4,2.6,3c0.2,3.3-0.4,6.5-1.2,9.6c-1,3.7-2.2,7.3-3.4,10.9
			c-0.5,1.6-2,2.3-3.6,2c-1.1-0.2-2.2-0.4-3.3-0.6c-0.4-0.1-0.8-0.1-0.9,0.4c-0.2,0.5,0.2,0.7,0.5,0.9c1.7,0.8,3.2,1.8,4.4,3.3
			c1.2,1.6,1.6,3.3,1,5.2c-0.7,2.4-1.9,4.6-3.2,6.7c-1,1.5-2,3-3.1,4.6c-1.2,1.8-1.4,3.7-0.4,5.7c0.7,1.4,2,2.1,3.5,2.2
			c1.6,0,2.8-0.5,3.7-1.9c0.6-1,0.9-2.1,1-3.2c0.2-1.9,0.4-3.7,0.6-5.6c0-0.1,0-0.3,0.1-0.4c0.1-0.5,0.4-0.7,0.9-0.7
			c0.5,0,0.8,0.4,0.8,0.9c-0.3,2.7-0.3,5.4-1.1,8c-1,3.5-3.8,4.8-6.4,4.6c-3.2-0.2-5.5-2.9-5.6-6.2c0-1.6,0.4-3,1.3-4.2
			c1.9-2.6,3.7-5.3,5.1-8.2c0.3-0.6,0.5-1.2,0.8-1.8c0.8-2.1,0.6-3.6-1.4-5.4c-0.9-0.8-2-1.4-3-2c-1.4-0.8-1.8-2.5-0.7-3.7
			c0.6-0.7,1.4-0.9,2.3-0.7c1.1,0.2,2.2,0.4,3.3,0.6c1.1,0.2,1.6-0.1,2-1.1C56.4,38.4,56.5,38.1,56.7,37.7z"/>
		<path class="st0" d="M50.8,67.1c-0.8-1.2-0.4-2.9,0.8-3.7c1.2-0.8,2.9-0.4,3.7,0.8c0.8,1.2,0.4,2.9-0.8,3.7
			C53.3,68.7,51.6,68.3,50.8,67.1z M52.3,66.2c0.3,0.4,0.8,0.5,1.3,0.3c0.4-0.3,0.6-0.9,0.3-1.3c-0.3-0.4-0.8-0.5-1.3-0.3
			C52.1,65.1,52,65.7,52.3,66.2z"/>
	</g>
	<path class="st0" d="M46.3,70.9c0.1-0.1,0.3-0.3,0.4-0.4c0,0,0-0.1,0.1-0.1c0,0,0.1-0.1,0.1-0.2c0-0.1,0.1-0.2,0.1-0.3h-0.2
		c0.2-0.9,0.5-1.7,0.5-2.5c0-14.1,0-28.1,0-42.2c0-2.3-1.6-4-4-4.1c-0.2,0-0.4,0-0.6-0.1V20c0-3.9,0-7.8,0-11.6
		c0-1.7-0.8-2.5-2.5-2.5c-3.9,0-7.9,0-11.8,0c-1.7,0-2.5,0.8-2.5,2.5c0,3.9,0,7.8,0,11.6v1c-3.6,0.5-4.6,1.7-4.6,5.3
		c0,13.2,0,26.3,0,39.5c0,1.3,0.3,2.7,0.4,4.1c-0.1,0-0.1,0-0.2,0c0.2,0.6,0.5,1.1,0.9,1.6h22.9C45.7,71.3,46,71.1,46.3,70.9z
		 M30.2,7.4c3.3,0,6.6,0,9.9,0c0.9,0,1.2,0.3,1.2,1.2c0,0.6,0,1.2,0,1.9H27.6c-0.1-0.1-0.1-0.1-0.1-0.2C27.5,6.8,27.1,7.4,30.2,7.4z
		 M31.6,15c1.8,0,3.7,0,5.5,0c0.7,0,1.1-0.3,1-1c0-0.6,0-1.3,0-2h3v9.1H27.6v-9h3c0,0.6,0,1.3,0,1.9C30.5,14.7,30.8,15,31.6,15z
		 M32.1,13.4V12h4.5v1.4H32.1z M26,70c-2.1,0-3-0.9-3-3.1c0-13.7,0-27.5,0-41.2c0-2.1,0.9-3,3-3c5.6,0,11.2,0,16.8,0
		c2.1,0,3,0.9,3,3c0,6.9,0,13.7,0,20.6s0,13.7,0,20.6c0,2.2-0.9,3.1-3.1,3.1C37.1,70,31.6,70,26,70z"/>
</g>
</svg>
