<?xml version="1.0" encoding="utf-8"?>
<!-- Generator: Adobe Illustrator 26.3.1, SVG Export Plug-In . SVG Version: 6.00 Build 0)  -->
<svg version="1.1" id="Capa_1" xmlns="http://www.w3.org/2000/svg" xmlns:xlink="http://www.w3.org/1999/xlink" x="0px" y="0px"
	 viewBox="0 0 86 79" style="enable-background:new 0 0 86 79;" xml:space="preserve">
<g>
	<path d="M75.5,65.3c-1.5,0-3,0-4.4,0c-0.2,0-0.4,0-0.7-0.1c2.1-2,2.9-4.3,2.3-6.9c-0.6-2.6-2.4-4.3-5.1-5.2
		c0.3-0.3,0.5-0.4,0.7-0.6c1.2-1.3,1.7-2.8,1.6-4.5c-0.3-3.5-3.2-5.9-6.8-5.6c-1.6,0.1-3.1,0-4.8,0c0.1-0.1,0.1-0.2,0.2-0.2
		c3-2.1,4.2-5.2,4.2-8.7c0-0.9-0.2-1.2-1.2-1.2c-1.7,0-3.4,0.3-5,1.1c-0.2,0.1-0.4,0.2-0.7,0.3c-0.4-2.2-1.4-4-2.8-5.6
		c-1.1-1.3-1.4-1.3-2.6,0c-1.4,1.6-2.3,3.4-2.8,5.5c-0.3-0.1-0.5-0.2-0.7-0.3c-1.6-0.7-3.3-1.1-5.1-1.1c-0.6,0-1.1,0.2-1,0.9
		c0,3.6,1.1,6.7,4.1,9c0.1,0.1,0.1,0.2,0.3,0.3c-2,0-3.9,0-5.7,0c-2.6,0-4.5,1.3-5.5,3.7c-1,2.4-0.5,4.6,1.3,6.5
		c0.1,0.1,0.3,0.3,0.4,0.5c-2.6,0.8-4.4,2.5-5,5.2c-0.6,2.7,0.3,5,2.3,6.9c-1.6,0-3,0-4.4,0c0-0.4,0-0.7,0-1c0-9.4,0-18.9,0-28.3
		c0-2.9,0-5.8,0-8.7c0-2.5-1.2-3.8-3.7-3.8c-0.8,0-1.7,0-2.5,0c-0.2,0-0.4,0-0.6-0.1c0-1.1,0-2.2,0-3.2c0-0.2,0.2-0.5,0.4-0.5
		c2.3-0.6,3.8-2.8,3.5-5.7c-0.3-3.4-2-6.2-4-8.8c-0.4-0.5-0.9-0.5-1.3,0c-0.2,0.3-0.4,0.6-0.6,0.9c-1.6,2.3-3,4.7-3.3,7.6
		c-0.3,2.7,0.6,5.2,3.4,6.1c0.1,0,0.3,0.3,0.3,0.4c0,1.1,0,2.2,0,3.4c-1.1,0-2,0.1-3,0c-2.5-0.2-3.9,1.7-3.8,3.8
		c0.1,12.4,0,24.7,0,37.1c0,0.3,0,0.6,0,1c-1,0-2,0-2.9,0c-0.6,0-1,0.3-0.9,0.9c0,0.6,0,1.3,0.1,1.9c0.6,3.6,3.5,6,7.3,6
		c17.4,0,34.8,0,52.2,0c4.6,0,7.6-3,7.6-7.7C76.6,65.5,76.4,65.3,75.5,65.3z M60.9,33.9c0.8,4.2-4,9-8.5,8.4
		C52.7,36.7,56.4,34.1,60.9,33.9z M49,33.9c0.3-1.8,1.2-3.4,2.5-4.8c1.2,1.3,2,2.7,2.5,4.3c0.2,0.9,0.1,1.5-0.6,2.2
		c-0.8,0.8-1.3,1.8-1.8,2.6c-0.8-1-1.7-2.1-2.5-3.3C49,34.7,49,34.2,49,33.9z M42.3,33.9c4.7-0.2,8.6,3.7,8.5,8.5
		C46.1,42.7,41.6,38.2,42.3,33.9z M34.9,48.5c0-2.4,1.9-4.4,4.3-4.5c7.6,0,15.2,0,22.8,0c0.5,0,0.6,0.3,0.7,0.7
		c0.2,2.5-1.7,4.8-4.3,4.8c-5.6,0.1-11.2,0-16.9,0c-0.7,0-1.2-0.5-1.2-1.1c0-0.6,0.5-1,1.2-1c1.9,0,3.8,0,5.7,0c0.3,0,0.8-0.2,1-0.5
		c0.3-0.4-0.1-1-0.7-1c-2.2,0-4.3,0-6.5,0c-1.2,0-2.2,1.2-2.3,2.4c-0.1,1.2,0.7,2.3,1.9,2.6c0.4,0.1,0.8,0.1,1.1,0.1
		c5.3,0,10.6,0,15.9,0c4.1,0,6.7-2.8,6.4-7c2.8,0,4.8,3.3,3.7,6.1C67.2,52,65.8,53,63.9,53c-8.2,0-16.4,0-24.5,0
		C36.9,53,34.9,51,34.9,48.5z M31.9,59.9c0-2.9,2.3-5.3,5.2-5.4c3.1,0,6.2,0,9.4,0c5.8,0,11.6,0,17.4,0c0.7,0,0.9,0.3,0.9,0.9
		c0.2,3.3-2.2,5.8-5.4,5.9c-6.5,0-12.9,0-19.4,0c-1,0-1.6-0.5-1.6-1.4c0-0.9,0.6-1.4,1.7-1.4c2.2,0,4.4,0,6.7,0c0.4,0,0.9-0.3,1-0.6
		c0.2-0.5-0.2-0.9-0.7-0.9c-2.5,0-5.1-0.1-7.6,0c-1.6,0.1-2.6,1.5-2.6,3.1c0.1,1.5,1.3,2.7,2.8,2.7c6.7,0,13.4,0.1,20.1,0
		c3.8,0,6.7-3.3,6.6-7.2c0-0.3,0-0.6,0-1c2.9,0.3,5,2.6,4.9,5.6c-0.1,2.8-2.4,5.1-5.2,5.1c-9.7,0-19.3,0-29,0
		C34.2,65.3,31.9,62.9,31.9,59.9z M17.9,15.9c-0.2-0.9-0.2-1.8,0-2.7c0.4-2.3,1.6-4.3,3-6.3c1.5,2.2,2.8,4.4,3.1,6.9
		c0.1,0.7,0,1.4-0.1,2.1c-0.3,1.5-1.5,2.4-3,2.4C19.4,18.3,18.2,17.4,17.9,15.9z M14.8,64.4c0-12.3,0-24.6,0-37
		c0-1.9,0.5-2.4,2.4-2.4c2.6,0,5.2,0,7.7,0c1.4,0,2.1,0.7,2.1,2.1c0,12.5,0,25,0,37.5c0,0.2,0,0.4,0,0.7c-4.1,0-8,0-12.2,0
		C14.8,65,14.8,64.7,14.8,64.4z M69.9,72.7c-0.2,0-0.4,0-0.6,0c-17.5,0-35.1,0-52.6,0c-2.6,0-4.7-1.5-5.5-3.8
		c-0.2-0.6-0.2-1.2-0.4-1.9c21.5,0,42.9,0,64.2,0C75.4,69.7,72.9,72.5,69.9,72.7z"/>
</g>
</svg>
