<?xml version="1.0" encoding="utf-8"?>
<!-- Generator: Adobe Illustrator 16.0.0, SVG Export Plug-In . SVG Version: 6.00 Build 0)  -->
<!DOCTYPE svg PUBLIC "-//W3C//DTD SVG 1.1//EN" "http://www.w3.org/Graphics/SVG/1.1/DTD/svg11.dtd">
<svg version="1.1" id="Capa_1" xmlns="http://www.w3.org/2000/svg" xmlns:xlink="http://www.w3.org/1999/xlink" x="0px" y="0px"
	 width="116px" height="30px" viewBox="0 0 116 30" enable-background="new 0 0 116 30" xml:space="preserve">
<title>logo</title>
<desc>Created with Sketch.</desc>
<g id="Page-1">
	<g id="logo">
		<path id="Shape" fill="#D33971" d="M6.664,3.717C8.019,3.413,9.373,3.24,10.728,3.24c7.54,0,11.964,3.807,11.964,11.377
			c0,7.484-6.004,10.859-12.731,10.859c-1.129,0-2.212-0.088-3.296-0.305V3.717z M2.059,22.361c0,2.552,0.271,4.628-1.986,6.098
			l0,0.131h10.835c10.113,0,16.93-5.969,16.93-14.492c0-8.608-6.41-13.972-16.704-13.972H0.072v0.129
			c2.303,0.648,1.987,3.808,1.987,5.796V22.361L2.059,22.361z"/>
		<path id="Shape_1_" fill="#D33971" d="M27.447,0.126v0.129c2.303,0.821,1.987,3.979,1.987,5.97v16.308
			c0,1.947,0.316,5.148-1.987,5.926v0.131h8.624v-0.131c-2.302-0.777-2.032-3.936-2.032-5.926V3.154
			c1.039-0.173,2.032-0.303,3.07-0.346c3.024-0.13,5.824,1.688,5.824,4.802c0,4.066-4.199,5.667-7.81,6.186l4.153,6.099l5.508,6.532
			c1.354,1.601,2.845,2.163,5.236,2.163h4.154c-2.573-1.558-5.418-3.807-7.314-6.057l-6.501-7.83
			c3.702-0.822,7.178-3.807,7.178-7.613c0-3.937-3.295-6.965-9.345-6.965H27.447z"/>
		<path id="Shape_2_" fill="#D33971" d="M69.442,28.59h6.636v-0.131c-2.302-0.821-2.031-3.979-2.031-5.926V6.225
			c0-1.99-0.271-5.148,2.031-5.97l-0.045-0.129h-8.577v0.129c2.257,0.821,1.986,3.979,1.986,5.927v13.021
			c0,1.557,0.046,2.639-0.948,3.936c-1.489,2.033-4.063,3.029-6.592,3.029c-4.65,0-7.178-2.682-7.178-8.436V6.182
			c0-1.947-0.271-5.105,1.986-5.927V0.126h-8.578v0.129c2.303,0.821,1.987,3.979,1.987,5.927v11.55c0,3.115-0.091,6.012,2.302,8.521
			c2.032,2.12,5.192,3.027,8.172,3.027c3.16,0,6.861-1.037,8.848-3.546L69.442,28.59L69.442,28.59z"/>
		<path id="Shape_3_" fill="#D33971" d="M82.324,6.225L97.81,25.043c1.987,2.466,3.386,3.893,6.592,4.932V5.706
			c0-2.421,0-4.152,2.348-5.45V0.126h-7.946v0.129c2.393,1.298,2.348,3.029,2.348,5.45v16.396L84.627,2.116L83.994,1.25
			c-0.315-0.346-0.496-0.562-0.676-1.081V0.126h-6.593v0.129c2.348,1.298,2.348,3.029,2.348,5.45v17.26c0,2.423,0,4.153-2.392,5.493
			v0.131h7.99v-0.131c-2.393-1.34-2.348-3.07-2.348-5.493V6.225L82.324,6.225z"/>
		<path id="Shape_4_" fill="#D33971" d="M109.248,22.533c0,1.947,0.271,5.148-1.986,5.926v0.131h8.578v-0.131
			c-2.258-0.821-1.986-3.979-1.986-5.926V6.225c0-1.947-0.271-5.148,1.986-5.97V0.126h-8.578v0.129
			c2.302,0.821,1.986,3.979,1.986,5.97V22.533z"/>
	</g>
</g>
</svg>
