<?xml version="1.0" encoding="utf-8"?>
<!-- Generator: Adobe Illustrator 25.1.0, SVG Export Plug-In . SVG Version: 6.00 Build 0)  -->
<svg version="1.1" id="Capa_1" xmlns="http://www.w3.org/2000/svg" xmlns:xlink="http://www.w3.org/1999/xlink" x="0px" y="0px"
	 viewBox="0 0 16 16" style="enable-background:new 0 0 16 16;" xml:space="preserve">
<style type="text/css">
	.st0{fill:#D33971;stroke:#D33971;stroke-width:0.5;stroke-miterlimit:10;}
	.st1{fill:#D33971;}
	.st2{fill:#D33971;stroke:#D33971;stroke-width:0.75;stroke-miterlimit:10;}
	.st3{fill:#D33971;stroke:#D33971;stroke-width:0.15;stroke-miterlimit:10;}
	.st4{fill:#D33971;stroke:#D33971;stroke-width:0.25;stroke-miterlimit:10;}
</style>
<g>
	<path class="st3" d="M12.74,14.49H3.26c-0.32,0-0.58-0.26-0.58-0.58V5.12c0-0.13,0.11-0.24,0.24-0.24h10.17
		c0.13,0,0.24,0.11,0.24,0.24v8.78C13.33,14.23,13.07,14.49,12.74,14.49z M2.91,5.12v8.78c0,0.19,0.15,0.34,0.34,0.34h9.49
		c0.19,0,0.34-0.15,0.34-0.34V5.12H2.91z"/>
	<path class="st3" d="M8,13.72c-1.75,0-3.49-0.13-5.22-0.39c-0.06-0.01-0.1-0.06-0.1-0.12V6.29c0-0.28,0.23-0.51,0.51-0.51h9.62
		c0.28,0,0.51,0.23,0.51,0.51v6.91c0,0.06-0.04,0.11-0.1,0.12C11.49,13.59,9.75,13.72,8,13.72z M2.91,13.11
		c3.38,0.5,6.8,0.5,10.17,0V6.29c0-0.15-0.12-0.27-0.27-0.27H3.19c-0.15,0-0.27,0.12-0.27,0.27V13.11z"/>
	<path class="st3" d="M10.21,5.12H5.79C5.72,5.12,5.66,5.07,5.66,5V3.76c0-0.07,0.05-0.12,0.12-0.12h4.43
		c0.07,0,0.12,0.05,0.12,0.12V5C10.34,5.07,10.28,5.12,10.21,5.12z M5.91,4.88h4.19V3.88H5.91V4.88z"/>
	<path class="st3" d="M11.82,3.88c-0.07,0-0.12-0.05-0.12-0.12v-0.3c0-0.07,0.05-0.12,0.12-0.12c0.07,0,0.12,0.05,0.12,0.12v0.3
		C11.94,3.82,11.88,3.88,11.82,3.88z"/>
	<path class="st3" d="M11.82,2.97c-0.07,0-0.12-0.05-0.12-0.12v-0.6c0-0.07,0.05-0.12,0.12-0.12c0.07,0,0.12,0.05,0.12,0.12v0.6
		C11.94,2.92,11.88,2.97,11.82,2.97z"/>
	<path class="st3" d="M11.82,1.77c-0.07,0-0.12-0.05-0.12-0.12v-0.3c0-0.07,0.05-0.12,0.12-0.12c0.07,0,0.12,0.05,0.12,0.12v0.3
		C11.94,1.71,11.88,1.77,11.82,1.77z"/>
	<path class="st3" d="M11.82,3.88H4.18c-0.07,0-0.12-0.05-0.12-0.12V1.35c0-0.07,0.05-0.12,0.12-0.12h7.63
		c0.07,0,0.12,0.05,0.12,0.12c0,0.07-0.05,0.12-0.12,0.12H4.3v2.17h7.51c0.07,0,0.12,0.05,0.12,0.12
		C11.94,3.82,11.88,3.88,11.82,3.88z"/>
	<path class="st3" d="M11.96,11.66H4.04c-0.07,0-0.12-0.05-0.12-0.12V7.79c0-0.07,0.05-0.12,0.12-0.12h7.93
		c0.07,0,0.12,0.05,0.12,0.12v3.75C12.08,11.6,12.03,11.66,11.96,11.66z M4.16,11.42h7.69V7.91H4.16V11.42z"/>
	<path class="st3" d="M11.29,11.05H4.71c-0.07,0-0.12-0.05-0.12-0.12V8.4c0-0.07,0.05-0.12,0.12-0.12h6.58
		c0.07,0,0.12,0.05,0.12,0.12v2.53C11.41,10.99,11.36,11.05,11.29,11.05z M4.83,10.81h6.34V8.52H4.83V10.81z"/>
	<path class="st3" d="M10.11,9.81H5.89c-0.07,0-0.12-0.05-0.12-0.12c0-0.07,0.05-0.12,0.12-0.12h4.22c0.07,0,0.12,0.05,0.12,0.12
		C10.23,9.75,10.17,9.81,10.11,9.81z"/>
</g>
</svg>
