<?xml version="1.0" encoding="utf-8"?>
<!-- Generator: Adobe Illustrator 25.2.1, SVG Export Plug-In . SVG Version: 6.00 Build 0)  -->
<svg version="1.1" id="Capa_1" xmlns="http://www.w3.org/2000/svg" xmlns:xlink="http://www.w3.org/1999/xlink" x="0px" y="0px"
	 viewBox="0 0 71.62 64.8" style="enable-background:new 0 0 71.62 64.8;" xml:space="preserve">
<style type="text/css">
	.st0{fill:#D33971;stroke:#D33971;stroke-width:0.5;stroke-miterlimit:10;}
	.st1{fill:#D33971;}
	.st2{fill:#D33971;stroke:#D33971;stroke-width:0.75;stroke-miterlimit:10;}
</style>
<g>
	<path class="st1" d="M50.31,3.38c-1.1-1.25-2.69-1.97-4.36-1.97H25.18c-1.67,0-3.26,0.72-4.36,1.97c-1.1,1.25-1.61,2.92-1.4,4.58
		c0.23,1.78,0.52,4.35,0.86,7.32c0.68,6.02,1.62,14.27,2.74,22.02c0.02,0.17,0.04,0.34,0.04,0.52c0.02,2.9,0.24,7.86,0.45,11.43
		c0,0,0,0.01,0,0.01v9.21v3.91c0,0.56,0.46,1.02,1.02,1.02h6.11h9.87h6.11c0.56,0,1.02-0.46,1.02-1.02v-3.91v-9.21
		c0,0,0-0.01,0-0.01c0.21-3.57,0.43-8.53,0.45-11.43c0-0.18,0.01-0.35,0.04-0.52c1.12-7.75,2.05-16,2.74-22.02
		c0.34-2.97,0.63-5.54,0.86-7.33C51.92,6.3,51.41,4.63,50.31,3.38z M39.48,61.36h-7.83v-1.87v-1.02v-0.69h7.83v0.69v1.02V61.36z
		 M25.54,59.49h4.08v1.87h-4.08V59.49z M41.51,59.49h4.08v1.87h-4.08V59.49z M41.51,57.45v-0.69c0-0.56-0.46-1.02-1.02-1.02h-9.87
		c-0.56,0-1.02,0.46-1.02,1.02v0.69h-4.08v-4.7h20.05v4.7H41.51z M49.69,7.7c-0.23,1.8-0.52,4.37-0.86,7.36
		c-0.68,6.01-1.61,14.23-2.73,21.96c-0.04,0.26-0.06,0.53-0.06,0.8c-0.01,2.64-0.2,7-0.4,10.43c-0.02,0.35-0.04,0.69-0.06,1.02
		c-0.02,0.36-0.04,0.69-0.06,1.02c-0.01,0.15-0.02,0.3-0.03,0.44H25.63c-0.01-0.14-0.02-0.29-0.03-0.44
		c-0.02-0.32-0.04-0.66-0.06-1.02c-0.02-0.33-0.04-0.67-0.06-1.02c-0.19-3.43-0.38-7.8-0.4-10.43c0-0.27-0.02-0.54-0.06-0.8
		c-1.11-7.72-2.05-15.95-2.73-21.96c-0.34-2.98-0.63-5.56-0.86-7.36c-0.14-1.08,0.19-2.16,0.91-2.97c0.72-0.81,1.75-1.28,2.83-1.28
		h20.77c1.08,0,2.12,0.47,2.83,1.28C49.5,5.54,49.83,6.62,49.69,7.7z"/>
	<path class="st1" d="M44.73,11.24H26.4c-0.29,0-0.57,0.13-0.76,0.34c-0.19,0.22-0.28,0.51-0.25,0.8l1.75,14.1
		c0.06,0.51,0.5,0.89,1.01,0.89h14.84c0.51,0,0.95-0.38,1.01-0.89l1.75-14.1c0.04-0.29-0.05-0.58-0.25-0.8
		C45.29,11.36,45.02,11.24,44.73,11.24z M29.04,25.33l-1.49-12.06h16.02l-1.49,12.06H29.04z"/>
</g>
</svg>
