<svg width="259" height="179" viewBox="0 0 259 179" fill="none" xmlns="http://www.w3.org/2000/svg">
<g filter="url(#filter0_d_9_6563)">
<path d="M99.5215 52.2036H100.521V51.2036H99.5215V52.2036ZM99.5215 79.7969V80.7969H100.521V79.7969H99.5215ZM99.5215 72.1226H100.521V71.1226H99.5215V72.1226ZM84.4585 70.3325L85.1656 69.6254L85.1618 69.6217L84.4585 70.3325ZM84.4204 61.6489L83.7133 60.9418L83.7095 60.9456L84.4204 61.6489ZM99.5215 59.8589V60.8589H100.521V59.8589H99.5215ZM99.5215 51.2036H88.8003V53.2036H99.5215V51.2036ZM88.8003 51.2036C84.715 51.2036 81.2039 52.6538 78.3241 55.5336L79.7384 56.9478C82.2414 54.4448 85.243 53.2036 88.8003 53.2036V51.2036ZM78.3241 55.5336C75.4451 58.4127 73.9941 61.9171 73.9941 65.9907H75.9941C75.9941 62.4472 77.2346 59.4516 79.7384 56.9478L78.3241 55.5336ZM73.9941 65.9907C73.9941 70.076 75.4444 73.5871 78.3241 76.4669L79.7384 75.0527C77.2353 72.5496 75.9941 69.548 75.9941 65.9907H73.9941ZM78.3241 76.4669C81.2039 79.3466 84.715 80.7969 88.8003 80.7969V78.7969C85.243 78.7969 82.2414 77.5557 79.7384 75.0527L78.3241 76.4669ZM88.8003 80.7969H99.5215V78.7969H88.8003V80.7969ZM100.521 79.7969V72.1226H98.5215V79.7969H100.521ZM99.5215 71.1226H88.8003V73.1226H99.5215V71.1226ZM88.8003 71.1226C87.3619 71.1226 86.1697 70.6296 85.1656 69.6254L83.7514 71.0396C85.134 72.4222 86.8363 73.1226 88.8003 73.1226V71.1226ZM85.1618 69.6217C84.1462 68.6167 83.6494 67.4256 83.6494 65.9907H81.6494C81.6494 67.9581 82.3587 69.6616 83.7551 71.0434L85.1618 69.6217ZM83.6494 65.9907C83.6494 64.549 84.1386 63.3556 85.1313 62.3522L83.7095 60.9456C82.3409 62.329 81.6494 64.0301 81.6494 65.9907H83.6494ZM85.1275 62.356C86.1286 61.355 87.3321 60.8589 88.8003 60.8589V58.8589C86.8154 58.8589 85.099 59.5561 83.7133 60.9418L85.1275 62.356ZM88.8003 60.8589H99.5215V58.8589H88.8003V60.8589ZM100.521 59.8589V52.2036H98.5215V59.8589H100.521ZM108.148 52.2036H109.148V51.2036H108.148V52.2036ZM100.474 52.2036V51.2036H99.4736V52.2036H100.474ZM100.474 79.7969H99.4736V80.7969H100.474V79.7969ZM121.421 79.7969V80.7969H122.421V79.7969H121.421ZM121.421 72.1226H122.421V71.1226H121.421V72.1226ZM108.148 72.1226H107.148V73.1226H108.148V72.1226ZM108.148 51.2036H100.474V53.2036H108.148V51.2036ZM99.4736 52.2036V79.7969H101.474V52.2036H99.4736ZM100.474 80.7969H121.421V78.7969H100.474V80.7969ZM122.421 79.7969V72.1226H120.421V79.7969H122.421ZM121.421 71.1226H108.148V73.1226H121.421V71.1226ZM109.148 72.1226V52.2036H107.148V72.1226H109.148ZM122.373 79.7969H121.373V80.7969H122.373V79.7969ZM130.047 79.7969V80.7969H131.047V79.7969H130.047ZM130.047 52.2036H131.047V51.2036H130.047V52.2036ZM122.373 52.2036V51.2036H121.373V52.2036H122.373ZM122.373 80.7969H130.047V78.7969H122.373V80.7969ZM131.047 79.7969V52.2036H129.047V79.7969H131.047ZM130.047 51.2036H122.373V53.2036H130.047V51.2036ZM121.373 52.2036V79.7969H123.373V52.2036H121.373ZM155.546 52.2036H156.546V51.2036H155.546V52.2036ZM155.546 79.7969V80.7969H156.546V79.7969H155.546ZM155.546 72.1226H156.546V71.1226H155.546V72.1226ZM140.483 70.3325L141.19 69.6254L141.186 69.6217L140.483 70.3325ZM140.445 61.6489L139.738 60.9418L139.734 60.9456L140.445 61.6489ZM155.546 59.8589V60.8589H156.546V59.8589H155.546ZM155.546 51.2036H144.825V53.2036H155.546V51.2036ZM144.825 51.2036C140.739 51.2036 137.228 52.6538 134.349 55.5336L135.763 56.9478C138.266 54.4448 141.267 53.2036 144.825 53.2036V51.2036ZM134.349 55.5336C131.469 58.4127 130.019 61.9171 130.019 65.9907H132.019C132.019 62.4472 133.259 59.4516 135.763 56.9478L134.349 55.5336ZM130.019 65.9907C130.019 70.076 131.469 73.5871 134.349 76.4669L135.763 75.0527C133.26 72.5496 132.019 69.548 132.019 65.9907H130.019ZM134.349 76.4669C137.228 79.3466 140.739 80.7969 144.825 80.7969V78.7969C141.267 78.7969 138.266 77.5557 135.763 75.0527L134.349 76.4669ZM144.825 80.7969H155.546V78.7969H144.825V80.7969ZM156.546 79.7969V72.1226H154.546V79.7969H156.546ZM155.546 71.1226H144.825V73.1226H155.546V71.1226ZM144.825 71.1226C143.386 71.1226 142.194 70.6296 141.19 69.6254L139.776 71.0396C141.158 72.4222 142.861 73.1226 144.825 73.1226V71.1226ZM141.186 69.6217C140.171 68.6167 139.674 67.4256 139.674 65.9907H137.674C137.674 67.9581 138.383 69.6616 139.78 71.0434L141.186 69.6217ZM139.674 65.9907C139.674 64.549 140.163 63.3556 141.156 62.3522L139.734 60.9456C138.365 62.329 137.674 64.0301 137.674 65.9907H139.674ZM141.152 62.356C142.153 61.355 143.357 60.8589 144.825 60.8589V58.8589C142.84 58.8589 141.123 59.5561 139.738 60.9418L141.152 62.356ZM144.825 60.8589H155.546V58.8589H144.825V60.8589ZM156.546 59.8589V52.2036H154.546V59.8589H156.546ZM172.113 52.2036V51.2036H171.608L171.308 51.6105L172.113 52.2036ZM164.172 62.9819H163.172V66.0252L164.977 63.5751L164.172 62.9819ZM164.172 52.2036H165.172V51.2036H164.172V52.2036ZM156.498 52.2036V51.2036H155.498V52.2036H156.498ZM156.498 79.7969H155.498V80.7969H156.498V79.7969ZM164.172 79.7969V80.7969H165.172V79.7969H164.172ZM164.172 72.77L164.926 72.1125L163.172 70.1031V72.77H164.172ZM170.304 79.7969L169.551 80.4544L169.85 80.7969H170.304V79.7969ZM190.356 79.7969V80.7969H191.356V79.7969H190.356ZM190.356 72.1226H191.356V71.1226H190.356V72.1226ZM174.018 72.1226L173.261 72.7761L173.56 73.1226H174.018V72.1226ZM170.285 67.7998L169.486 67.1981L169.001 67.8426L169.528 68.4533L170.285 67.7998ZM182.035 52.2036L182.833 52.8053L184.04 51.2036H182.035V52.2036ZM171.308 51.6105L163.367 62.3888L164.977 63.5751L172.918 52.7968L171.308 51.6105ZM165.172 62.9819V52.2036H163.172V62.9819H165.172ZM164.172 51.2036H156.498V53.2036H164.172V51.2036ZM155.498 52.2036V79.7969H157.498V52.2036H155.498ZM156.498 80.7969H164.172V78.7969H156.498V80.7969ZM165.172 79.7969V72.77H163.172V79.7969H165.172ZM163.419 73.4275L169.551 80.4544L171.058 79.1394L164.926 72.1125L163.419 73.4275ZM170.304 80.7969H190.356V78.7969H170.304V80.7969ZM191.356 79.7969V72.1226H189.356V79.7969H191.356ZM190.356 71.1226H174.018V73.1226H190.356V71.1226ZM174.774 71.469L171.042 67.1463L169.528 68.4533L173.261 72.7761L174.774 71.469ZM171.084 68.4015L182.833 52.8053L181.236 51.6019L169.486 67.1981L171.084 68.4015ZM182.035 51.2036H172.113V53.2036H182.035V51.2036ZM48.2197 97.2036V96.2036H47.2197V97.2036H48.2197ZM48.2197 104.859H47.2197V105.859H48.2197V104.859ZM55.3037 104.859H56.3037V103.859H55.3037V104.859ZM55.3037 124.797H54.3037V125.797H55.3037V124.797ZM62.978 124.797V125.797H63.978V124.797H62.978ZM62.978 104.859V103.859H61.978V104.859H62.978ZM70.062 104.859V105.859H71.062V104.859H70.062ZM70.062 97.2036H71.062V96.2036H70.062V97.2036ZM47.2197 97.2036V104.859H49.2197V97.2036H47.2197ZM48.2197 105.859H55.3037V103.859H48.2197V105.859ZM54.3037 104.859V124.797H56.3037V104.859H54.3037ZM55.3037 125.797H62.978V123.797H55.3037V125.797ZM63.978 124.797V104.859H61.978V124.797H63.978ZM62.978 105.859H70.062V103.859H62.978V105.859ZM71.062 104.859V97.2036H69.062V104.859H71.062ZM70.062 96.2036H48.2197V98.2036H70.062V96.2036ZM79.355 115.333L80.0621 114.625L80.0583 114.622L79.355 115.333ZM79.3169 106.649L78.6098 105.942L78.606 105.946L79.3169 106.649ZM90.1714 106.649L90.8823 105.946L90.8785 105.942L90.1714 106.649ZM90.1333 115.333L89.4299 114.622L89.4262 114.625L90.1333 115.333ZM83.6968 116.123C82.2584 116.123 81.0662 115.63 80.0621 114.625L78.6479 116.04C80.0305 117.422 81.7328 118.123 83.6968 118.123V116.123ZM80.0583 114.622C79.0427 113.617 78.5459 112.426 78.5459 110.991H76.5459C76.5459 112.958 77.2552 114.662 78.6516 116.043L80.0583 114.622ZM78.5459 110.991C78.5459 109.549 79.0351 108.356 80.0278 107.352L78.606 105.946C77.2374 107.329 76.5459 109.03 76.5459 110.991H78.5459ZM80.024 107.356C81.025 106.355 82.2286 105.859 83.6968 105.859V103.859C81.7118 103.859 79.9955 104.556 78.6098 105.942L80.024 107.356ZM83.6968 105.859H85.7915V103.859H83.6968V105.859ZM85.7915 105.859C87.2597 105.859 88.4632 106.355 89.4643 107.356L90.8785 105.942C89.4928 104.556 87.7764 103.859 85.7915 103.859V105.859ZM89.4605 107.352C90.4532 108.356 90.9424 109.549 90.9424 110.991H92.9424C92.9424 109.03 92.2509 107.329 90.8823 105.946L89.4605 107.352ZM90.9424 110.991C90.9424 112.426 90.4456 113.617 89.4299 114.622L90.8367 116.043C92.2331 114.662 92.9424 112.958 92.9424 110.991H90.9424ZM89.4262 114.625C88.4221 115.63 87.2298 116.123 85.7915 116.123V118.123C87.7555 118.123 89.4578 117.422 90.8404 116.04L89.4262 114.625ZM85.7915 116.123H83.6968V118.123H85.7915V116.123ZM83.6968 96.2036C79.6115 96.2036 76.1004 97.6538 73.2206 100.534L74.6348 101.948C77.1379 99.4448 80.1395 98.2036 83.6968 98.2036V96.2036ZM73.2206 100.534C70.3416 103.413 68.8906 106.917 68.8906 110.991H70.8906C70.8906 107.447 72.1311 104.452 74.6348 101.948L73.2206 100.534ZM68.8906 110.991C68.8906 115.076 70.3409 118.587 73.2206 121.467L74.6348 120.053C72.1318 117.55 70.8906 114.548 70.8906 110.991H68.8906ZM73.2206 121.467C76.1004 124.347 79.6115 125.797 83.6968 125.797V123.797C80.1395 123.797 77.1379 122.556 74.6348 120.053L73.2206 121.467ZM83.6968 125.797H85.7915V123.797H83.6968V125.797ZM85.7915 125.797C89.8768 125.797 93.3879 124.347 96.2677 121.467L94.8534 120.053C92.3504 122.556 89.3488 123.797 85.7915 123.797V125.797ZM96.2677 121.467C99.1474 118.587 100.598 115.076 100.598 110.991H98.5977C98.5977 114.548 97.3565 117.55 94.8534 120.053L96.2677 121.467ZM100.598 110.991C100.598 106.917 99.1467 103.413 96.2677 100.534L94.8534 101.948C97.3572 104.452 98.5977 107.447 98.5977 110.991H100.598ZM96.2677 100.534C93.3879 97.6538 89.8768 96.2036 85.7915 96.2036V98.2036C89.3488 98.2036 92.3504 99.4448 94.8534 101.948L96.2677 100.534ZM85.7915 96.2036H83.6968V98.2036H85.7915V96.2036ZM116.984 115.333L117.691 114.625L117.687 114.622L116.984 115.333ZM116.946 106.649L116.239 105.942L116.235 105.946L116.946 106.649ZM127.8 106.649L128.511 105.946L128.507 105.942L127.8 106.649ZM127.762 115.333L127.059 114.622L127.055 114.625L127.762 115.333ZM121.326 116.123C119.887 116.123 118.695 115.63 117.691 114.625L116.277 116.04C117.659 117.422 119.362 118.123 121.326 118.123V116.123ZM117.687 114.622C116.672 113.617 116.175 112.426 116.175 110.991H114.175C114.175 112.958 114.884 114.662 116.281 116.043L117.687 114.622ZM116.175 110.991C116.175 109.549 116.664 108.356 117.657 107.352L116.235 105.946C114.866 107.329 114.175 109.03 114.175 110.991H116.175ZM117.653 107.356C118.654 106.355 119.857 105.859 121.326 105.859V103.859C119.341 103.859 117.624 104.556 116.239 105.942L117.653 107.356ZM121.326 105.859H123.42V103.859H121.326V105.859ZM123.42 105.859C124.889 105.859 126.092 106.355 127.093 107.356L128.507 105.942C127.122 104.556 125.405 103.859 123.42 103.859V105.859ZM127.089 107.352C128.082 108.356 128.571 109.549 128.571 110.991H130.571C130.571 109.03 129.88 107.329 128.511 105.946L127.089 107.352ZM128.571 110.991C128.571 112.426 128.075 113.617 127.059 114.622L128.466 116.043C129.862 114.662 130.571 112.958 130.571 110.991H128.571ZM127.055 114.625C126.051 115.63 124.859 116.123 123.42 116.123V118.123C125.384 118.123 127.087 117.422 128.469 116.04L127.055 114.625ZM123.42 116.123H121.326V118.123H123.42V116.123ZM121.326 96.2036C117.24 96.2036 113.729 97.6538 110.85 100.534L112.264 101.948C114.767 99.4448 117.768 98.2036 121.326 98.2036V96.2036ZM110.85 100.534C107.97 103.413 106.52 106.917 106.52 110.991H108.52C108.52 107.447 109.76 104.452 112.264 101.948L110.85 100.534ZM106.52 110.991C106.52 115.076 107.97 118.587 110.85 121.467L112.264 120.053C109.761 117.55 108.52 114.548 108.52 110.991H106.52ZM110.85 121.467C113.729 124.347 117.24 125.797 121.326 125.797V123.797C117.768 123.797 114.767 122.556 112.264 120.053L110.85 121.467ZM121.326 125.797H123.42V123.797H121.326V125.797ZM123.42 125.797C127.506 125.797 131.017 124.347 133.897 121.467L132.482 120.053C129.979 122.556 126.978 123.797 123.42 123.797V125.797ZM133.897 121.467C136.776 118.587 138.227 115.076 138.227 110.991H136.227C136.227 114.548 134.985 117.55 132.482 120.053L133.897 121.467ZM138.227 110.991C138.227 106.917 136.776 103.413 133.897 100.534L132.482 101.948C134.986 104.452 136.227 107.447 136.227 110.991H138.227ZM133.897 100.534C131.017 97.6538 127.506 96.2036 123.42 96.2036V98.2036C126.978 98.2036 129.979 99.4448 132.482 101.948L133.897 100.534ZM123.42 96.2036H121.326V98.2036H123.42V96.2036ZM138.179 97.2036V96.2036H137.179V97.2036H138.179ZM138.179 124.797H137.179V125.797H138.179V124.797ZM145.853 124.797V125.797H146.853V124.797H145.853ZM145.853 117.732V116.732H144.853V117.732H145.853ZM151.204 117.732V118.732L151.213 118.732L151.204 117.732ZM158.402 114.704L159.112 115.409L159.114 115.407L158.402 114.704ZM158.402 100.25L157.691 100.953L157.693 100.955L158.402 100.25ZM151.204 97.2036L151.213 96.2036H151.204V97.2036ZM145.853 109.753H144.853V110.753H145.853V109.753ZM145.853 105.982V104.982H144.853V105.982H145.853ZM137.179 97.2036V124.797H139.179V97.2036H137.179ZM138.179 125.797H145.853V123.797H138.179V125.797ZM146.853 124.797V117.732H144.853V124.797H146.853ZM145.853 118.732H151.204V116.732H145.853V118.732ZM151.213 118.732C154.294 118.704 156.945 117.589 159.112 115.409L157.693 113.999C155.899 115.805 153.751 116.709 151.195 116.732L151.213 118.732ZM159.114 115.407C161.279 113.214 162.373 110.549 162.373 107.468H160.373C160.373 110.023 159.486 112.183 157.691 114.002L159.114 115.407ZM162.373 107.468C162.373 104.386 161.279 101.727 159.112 99.5456L157.693 100.955C159.487 102.761 160.373 104.913 160.373 107.468H162.373ZM159.114 99.5479C156.948 97.354 154.296 96.2314 151.213 96.2037L151.195 98.2036C153.749 98.2266 155.896 99.1353 157.691 100.953L159.114 99.5479ZM151.204 96.2036H138.179V98.2036H151.204V96.2036ZM146.853 109.753V105.982H144.853V109.753H146.853ZM145.853 106.982H150.519V104.982H145.853V106.982ZM150.519 106.982C150.774 106.982 150.964 107.061 151.144 107.242L152.559 105.828C152.003 105.272 151.304 104.982 150.519 104.982V106.982ZM151.144 107.242C151.325 107.422 151.404 107.612 151.404 107.868H153.404C153.404 107.082 153.114 106.383 152.559 105.828L151.144 107.242ZM151.404 107.868C151.404 108.123 151.325 108.313 151.144 108.494L152.559 109.908C153.114 109.352 153.404 108.653 153.404 107.868H151.404ZM151.144 108.494C150.964 108.674 150.774 108.753 150.519 108.753V110.753C151.304 110.753 152.003 110.463 152.559 109.908L151.144 108.494ZM150.519 108.753H145.853V110.753H150.519V108.753ZM162.325 97.2036V96.2036H161.325V97.2036H162.325ZM162.325 124.797H161.325V125.797H162.325V124.797ZM182.32 124.797V125.797H183.32V124.797H182.32ZM182.32 117.123H183.32V116.123H182.32V117.123ZM170 117.123H169V118.123H170V117.123ZM170 114.837V113.837H169V114.837H170ZM182.32 114.837V115.837H183.32V114.837H182.32ZM182.32 107.163H183.32V106.163H182.32V107.163ZM170 107.163H169V108.163H170V107.163ZM170 104.859V103.859H169V104.859H170ZM182.32 104.859V105.859H183.32V104.859H182.32ZM182.32 97.2036H183.32V96.2036H182.32V97.2036ZM161.325 97.2036V124.797H163.325V97.2036H161.325ZM162.325 125.797H182.32V123.797H162.325V125.797ZM183.32 124.797V117.123H181.32V124.797H183.32ZM182.32 116.123H170V118.123H182.32V116.123ZM171 117.123V114.837H169V117.123H171ZM170 115.837H182.32V113.837H170V115.837ZM183.32 114.837V107.163H181.32V114.837H183.32ZM182.32 106.163H170V108.163H182.32V106.163ZM171 107.163V104.859H169V107.163H171ZM170 105.859H182.32V103.859H170V105.859ZM183.32 104.859V97.2036H181.32V104.859H183.32ZM182.32 96.2036H162.325V98.2036H182.32V96.2036ZM201.135 111.543L200.321 112.124L202.135 114.667V111.543H201.135ZM190.909 97.2036L191.723 96.623L191.424 96.2036H190.909V97.2036ZM183.272 97.2036V96.2036H182.272V97.2036H183.272ZM183.272 124.797H182.272V125.797H183.272V124.797ZM190.947 124.797V125.797H191.947V124.797H190.947ZM190.947 110.438L191.762 109.86L189.947 107.301V110.438H190.947ZM201.135 124.797L200.319 125.376L200.618 125.797H201.135V124.797ZM208.809 124.797V125.797H209.809V124.797H208.809ZM208.809 97.2036H209.809V96.2036H208.809V97.2036ZM201.135 97.2036V96.2036H200.135V97.2036H201.135ZM201.949 110.962L191.723 96.623L190.095 97.7842L200.321 112.124L201.949 110.962ZM190.909 96.2036H183.272V98.2036H190.909V96.2036ZM182.272 97.2036V124.797H184.272V97.2036H182.272ZM183.272 125.797H190.947V123.797H183.272V125.797ZM191.947 124.797V110.438H189.947V124.797H191.947ZM190.131 111.017L200.319 125.376L201.95 124.218L191.762 109.86L190.131 111.017ZM201.135 125.797H208.809V123.797H201.135V125.797ZM209.809 124.797V97.2036H207.809V124.797H209.809ZM208.809 96.2036H201.135V98.2036H208.809V96.2036ZM200.135 97.2036V111.543H202.135V97.2036H200.135Z" fill="white"/>
<path d="M5 5V59.4688H14.7351V14.7073H66.3854V5H5Z" stroke="white" stroke-width="2"/>
<path d="M254 173.594V119.125H244.265V163.886H192.615V173.594H254Z" stroke="white" stroke-width="2"/>
</g>
<g filter="url(#filter1_d_9_6563)">
<path d="M99.5215 52.2036H100.521V51.2036H99.5215V52.2036ZM99.5215 79.7969V80.7969H100.521V79.7969H99.5215ZM99.5215 72.1226H100.521V71.1226H99.5215V72.1226ZM84.4585 70.3325L85.1656 69.6254L85.1618 69.6217L84.4585 70.3325ZM84.4204 61.6489L83.7133 60.9418L83.7095 60.9456L84.4204 61.6489ZM99.5215 59.8589V60.8589H100.521V59.8589H99.5215ZM99.5215 51.2036H88.8003V53.2036H99.5215V51.2036ZM88.8003 51.2036C84.715 51.2036 81.2039 52.6538 78.3241 55.5336L79.7384 56.9478C82.2414 54.4448 85.243 53.2036 88.8003 53.2036V51.2036ZM78.3241 55.5336C75.4451 58.4127 73.9941 61.9171 73.9941 65.9907H75.9941C75.9941 62.4472 77.2346 59.4516 79.7384 56.9478L78.3241 55.5336ZM73.9941 65.9907C73.9941 70.076 75.4444 73.5871 78.3241 76.4669L79.7384 75.0527C77.2353 72.5496 75.9941 69.548 75.9941 65.9907H73.9941ZM78.3241 76.4669C81.2039 79.3466 84.715 80.7969 88.8003 80.7969V78.7969C85.243 78.7969 82.2414 77.5557 79.7384 75.0527L78.3241 76.4669ZM88.8003 80.7969H99.5215V78.7969H88.8003V80.7969ZM100.521 79.7969V72.1226H98.5215V79.7969H100.521ZM99.5215 71.1226H88.8003V73.1226H99.5215V71.1226ZM88.8003 71.1226C87.3619 71.1226 86.1697 70.6296 85.1656 69.6254L83.7514 71.0396C85.134 72.4222 86.8363 73.1226 88.8003 73.1226V71.1226ZM85.1618 69.6217C84.1462 68.6167 83.6494 67.4256 83.6494 65.9907H81.6494C81.6494 67.9581 82.3587 69.6616 83.7551 71.0434L85.1618 69.6217ZM83.6494 65.9907C83.6494 64.549 84.1386 63.3556 85.1313 62.3522L83.7095 60.9456C82.3409 62.329 81.6494 64.0301 81.6494 65.9907H83.6494ZM85.1275 62.356C86.1286 61.355 87.3321 60.8589 88.8003 60.8589V58.8589C86.8154 58.8589 85.099 59.5561 83.7133 60.9418L85.1275 62.356ZM88.8003 60.8589H99.5215V58.8589H88.8003V60.8589ZM100.521 59.8589V52.2036H98.5215V59.8589H100.521ZM108.148 52.2036H109.148V51.2036H108.148V52.2036ZM100.474 52.2036V51.2036H99.4736V52.2036H100.474ZM100.474 79.7969H99.4736V80.7969H100.474V79.7969ZM121.421 79.7969V80.7969H122.421V79.7969H121.421ZM121.421 72.1226H122.421V71.1226H121.421V72.1226ZM108.148 72.1226H107.148V73.1226H108.148V72.1226ZM108.148 51.2036H100.474V53.2036H108.148V51.2036ZM99.4736 52.2036V79.7969H101.474V52.2036H99.4736ZM100.474 80.7969H121.421V78.7969H100.474V80.7969ZM122.421 79.7969V72.1226H120.421V79.7969H122.421ZM121.421 71.1226H108.148V73.1226H121.421V71.1226ZM109.148 72.1226V52.2036H107.148V72.1226H109.148ZM122.373 79.7969H121.373V80.7969H122.373V79.7969ZM130.047 79.7969V80.7969H131.047V79.7969H130.047ZM130.047 52.2036H131.047V51.2036H130.047V52.2036ZM122.373 52.2036V51.2036H121.373V52.2036H122.373ZM122.373 80.7969H130.047V78.7969H122.373V80.7969ZM131.047 79.7969V52.2036H129.047V79.7969H131.047ZM130.047 51.2036H122.373V53.2036H130.047V51.2036ZM121.373 52.2036V79.7969H123.373V52.2036H121.373ZM155.546 52.2036H156.546V51.2036H155.546V52.2036ZM155.546 79.7969V80.7969H156.546V79.7969H155.546ZM155.546 72.1226H156.546V71.1226H155.546V72.1226ZM140.483 70.3325L141.19 69.6254L141.186 69.6217L140.483 70.3325ZM140.445 61.6489L139.738 60.9418L139.734 60.9456L140.445 61.6489ZM155.546 59.8589V60.8589H156.546V59.8589H155.546ZM155.546 51.2036H144.825V53.2036H155.546V51.2036ZM144.825 51.2036C140.739 51.2036 137.228 52.6538 134.349 55.5336L135.763 56.9478C138.266 54.4448 141.267 53.2036 144.825 53.2036V51.2036ZM134.349 55.5336C131.469 58.4127 130.019 61.9171 130.019 65.9907H132.019C132.019 62.4472 133.259 59.4516 135.763 56.9478L134.349 55.5336ZM130.019 65.9907C130.019 70.076 131.469 73.5871 134.349 76.4669L135.763 75.0527C133.26 72.5496 132.019 69.548 132.019 65.9907H130.019ZM134.349 76.4669C137.228 79.3466 140.739 80.7969 144.825 80.7969V78.7969C141.267 78.7969 138.266 77.5557 135.763 75.0527L134.349 76.4669ZM144.825 80.7969H155.546V78.7969H144.825V80.7969ZM156.546 79.7969V72.1226H154.546V79.7969H156.546ZM155.546 71.1226H144.825V73.1226H155.546V71.1226ZM144.825 71.1226C143.386 71.1226 142.194 70.6296 141.19 69.6254L139.776 71.0396C141.158 72.4222 142.861 73.1226 144.825 73.1226V71.1226ZM141.186 69.6217C140.171 68.6167 139.674 67.4256 139.674 65.9907H137.674C137.674 67.9581 138.383 69.6616 139.78 71.0434L141.186 69.6217ZM139.674 65.9907C139.674 64.549 140.163 63.3556 141.156 62.3522L139.734 60.9456C138.365 62.329 137.674 64.0301 137.674 65.9907H139.674ZM141.152 62.356C142.153 61.355 143.357 60.8589 144.825 60.8589V58.8589C142.84 58.8589 141.123 59.5561 139.738 60.9418L141.152 62.356ZM144.825 60.8589H155.546V58.8589H144.825V60.8589ZM156.546 59.8589V52.2036H154.546V59.8589H156.546ZM172.113 52.2036V51.2036H171.608L171.308 51.6105L172.113 52.2036ZM164.172 62.9819H163.172V66.0252L164.977 63.5751L164.172 62.9819ZM164.172 52.2036H165.172V51.2036H164.172V52.2036ZM156.498 52.2036V51.2036H155.498V52.2036H156.498ZM156.498 79.7969H155.498V80.7969H156.498V79.7969ZM164.172 79.7969V80.7969H165.172V79.7969H164.172ZM164.172 72.77L164.926 72.1125L163.172 70.1031V72.77H164.172ZM170.304 79.7969L169.551 80.4544L169.85 80.7969H170.304V79.7969ZM190.356 79.7969V80.7969H191.356V79.7969H190.356ZM190.356 72.1226H191.356V71.1226H190.356V72.1226ZM174.018 72.1226L173.261 72.7761L173.56 73.1226H174.018V72.1226ZM170.285 67.7998L169.486 67.1981L169.001 67.8426L169.528 68.4533L170.285 67.7998ZM182.035 52.2036L182.833 52.8053L184.04 51.2036H182.035V52.2036ZM171.308 51.6105L163.367 62.3888L164.977 63.5751L172.918 52.7968L171.308 51.6105ZM165.172 62.9819V52.2036H163.172V62.9819H165.172ZM164.172 51.2036H156.498V53.2036H164.172V51.2036ZM155.498 52.2036V79.7969H157.498V52.2036H155.498ZM156.498 80.7969H164.172V78.7969H156.498V80.7969ZM165.172 79.7969V72.77H163.172V79.7969H165.172ZM163.419 73.4275L169.551 80.4544L171.058 79.1394L164.926 72.1125L163.419 73.4275ZM170.304 80.7969H190.356V78.7969H170.304V80.7969ZM191.356 79.7969V72.1226H189.356V79.7969H191.356ZM190.356 71.1226H174.018V73.1226H190.356V71.1226ZM174.774 71.469L171.042 67.1463L169.528 68.4533L173.261 72.7761L174.774 71.469ZM171.084 68.4015L182.833 52.8053L181.236 51.6019L169.486 67.1981L171.084 68.4015ZM182.035 51.2036H172.113V53.2036H182.035V51.2036ZM48.2197 97.2036V96.2036H47.2197V97.2036H48.2197ZM48.2197 104.859H47.2197V105.859H48.2197V104.859ZM55.3037 104.859H56.3037V103.859H55.3037V104.859ZM55.3037 124.797H54.3037V125.797H55.3037V124.797ZM62.978 124.797V125.797H63.978V124.797H62.978ZM62.978 104.859V103.859H61.978V104.859H62.978ZM70.062 104.859V105.859H71.062V104.859H70.062ZM70.062 97.2036H71.062V96.2036H70.062V97.2036ZM47.2197 97.2036V104.859H49.2197V97.2036H47.2197ZM48.2197 105.859H55.3037V103.859H48.2197V105.859ZM54.3037 104.859V124.797H56.3037V104.859H54.3037ZM55.3037 125.797H62.978V123.797H55.3037V125.797ZM63.978 124.797V104.859H61.978V124.797H63.978ZM62.978 105.859H70.062V103.859H62.978V105.859ZM71.062 104.859V97.2036H69.062V104.859H71.062ZM70.062 96.2036H48.2197V98.2036H70.062V96.2036ZM79.355 115.333L80.0621 114.625L80.0583 114.622L79.355 115.333ZM79.3169 106.649L78.6098 105.942L78.606 105.946L79.3169 106.649ZM90.1714 106.649L90.8823 105.946L90.8785 105.942L90.1714 106.649ZM90.1333 115.333L89.4299 114.622L89.4262 114.625L90.1333 115.333ZM83.6968 116.123C82.2584 116.123 81.0662 115.63 80.0621 114.625L78.6479 116.04C80.0305 117.422 81.7328 118.123 83.6968 118.123V116.123ZM80.0583 114.622C79.0427 113.617 78.5459 112.426 78.5459 110.991H76.5459C76.5459 112.958 77.2552 114.662 78.6516 116.043L80.0583 114.622ZM78.5459 110.991C78.5459 109.549 79.0351 108.356 80.0278 107.352L78.606 105.946C77.2374 107.329 76.5459 109.03 76.5459 110.991H78.5459ZM80.024 107.356C81.025 106.355 82.2286 105.859 83.6968 105.859V103.859C81.7118 103.859 79.9955 104.556 78.6098 105.942L80.024 107.356ZM83.6968 105.859H85.7915V103.859H83.6968V105.859ZM85.7915 105.859C87.2597 105.859 88.4632 106.355 89.4643 107.356L90.8785 105.942C89.4928 104.556 87.7764 103.859 85.7915 103.859V105.859ZM89.4605 107.352C90.4532 108.356 90.9424 109.549 90.9424 110.991H92.9424C92.9424 109.03 92.2509 107.329 90.8823 105.946L89.4605 107.352ZM90.9424 110.991C90.9424 112.426 90.4456 113.617 89.4299 114.622L90.8367 116.043C92.2331 114.662 92.9424 112.958 92.9424 110.991H90.9424ZM89.4262 114.625C88.4221 115.63 87.2298 116.123 85.7915 116.123V118.123C87.7555 118.123 89.4578 117.422 90.8404 116.04L89.4262 114.625ZM85.7915 116.123H83.6968V118.123H85.7915V116.123ZM83.6968 96.2036C79.6115 96.2036 76.1004 97.6538 73.2206 100.534L74.6348 101.948C77.1379 99.4448 80.1395 98.2036 83.6968 98.2036V96.2036ZM73.2206 100.534C70.3416 103.413 68.8906 106.917 68.8906 110.991H70.8906C70.8906 107.447 72.1311 104.452 74.6348 101.948L73.2206 100.534ZM68.8906 110.991C68.8906 115.076 70.3409 118.587 73.2206 121.467L74.6348 120.053C72.1318 117.55 70.8906 114.548 70.8906 110.991H68.8906ZM73.2206 121.467C76.1004 124.347 79.6115 125.797 83.6968 125.797V123.797C80.1395 123.797 77.1379 122.556 74.6348 120.053L73.2206 121.467ZM83.6968 125.797H85.7915V123.797H83.6968V125.797ZM85.7915 125.797C89.8768 125.797 93.3879 124.347 96.2677 121.467L94.8534 120.053C92.3504 122.556 89.3488 123.797 85.7915 123.797V125.797ZM96.2677 121.467C99.1474 118.587 100.598 115.076 100.598 110.991H98.5977C98.5977 114.548 97.3565 117.55 94.8534 120.053L96.2677 121.467ZM100.598 110.991C100.598 106.917 99.1467 103.413 96.2677 100.534L94.8534 101.948C97.3572 104.452 98.5977 107.447 98.5977 110.991H100.598ZM96.2677 100.534C93.3879 97.6538 89.8768 96.2036 85.7915 96.2036V98.2036C89.3488 98.2036 92.3504 99.4448 94.8534 101.948L96.2677 100.534ZM85.7915 96.2036H83.6968V98.2036H85.7915V96.2036ZM116.984 115.333L117.691 114.625L117.687 114.622L116.984 115.333ZM116.946 106.649L116.239 105.942L116.235 105.946L116.946 106.649ZM127.8 106.649L128.511 105.946L128.507 105.942L127.8 106.649ZM127.762 115.333L127.059 114.622L127.055 114.625L127.762 115.333ZM121.326 116.123C119.887 116.123 118.695 115.63 117.691 114.625L116.277 116.04C117.659 117.422 119.362 118.123 121.326 118.123V116.123ZM117.687 114.622C116.672 113.617 116.175 112.426 116.175 110.991H114.175C114.175 112.958 114.884 114.662 116.281 116.043L117.687 114.622ZM116.175 110.991C116.175 109.549 116.664 108.356 117.657 107.352L116.235 105.946C114.866 107.329 114.175 109.03 114.175 110.991H116.175ZM117.653 107.356C118.654 106.355 119.857 105.859 121.326 105.859V103.859C119.341 103.859 117.624 104.556 116.239 105.942L117.653 107.356ZM121.326 105.859H123.42V103.859H121.326V105.859ZM123.42 105.859C124.889 105.859 126.092 106.355 127.093 107.356L128.507 105.942C127.122 104.556 125.405 103.859 123.42 103.859V105.859ZM127.089 107.352C128.082 108.356 128.571 109.549 128.571 110.991H130.571C130.571 109.03 129.88 107.329 128.511 105.946L127.089 107.352ZM128.571 110.991C128.571 112.426 128.075 113.617 127.059 114.622L128.466 116.043C129.862 114.662 130.571 112.958 130.571 110.991H128.571ZM127.055 114.625C126.051 115.63 124.859 116.123 123.42 116.123V118.123C125.384 118.123 127.087 117.422 128.469 116.04L127.055 114.625ZM123.42 116.123H121.326V118.123H123.42V116.123ZM121.326 96.2036C117.24 96.2036 113.729 97.6538 110.85 100.534L112.264 101.948C114.767 99.4448 117.768 98.2036 121.326 98.2036V96.2036ZM110.85 100.534C107.97 103.413 106.52 106.917 106.52 110.991H108.52C108.52 107.447 109.76 104.452 112.264 101.948L110.85 100.534ZM106.52 110.991C106.52 115.076 107.97 118.587 110.85 121.467L112.264 120.053C109.761 117.55 108.52 114.548 108.52 110.991H106.52ZM110.85 121.467C113.729 124.347 117.24 125.797 121.326 125.797V123.797C117.768 123.797 114.767 122.556 112.264 120.053L110.85 121.467ZM121.326 125.797H123.42V123.797H121.326V125.797ZM123.42 125.797C127.506 125.797 131.017 124.347 133.897 121.467L132.482 120.053C129.979 122.556 126.978 123.797 123.42 123.797V125.797ZM133.897 121.467C136.776 118.587 138.227 115.076 138.227 110.991H136.227C136.227 114.548 134.985 117.55 132.482 120.053L133.897 121.467ZM138.227 110.991C138.227 106.917 136.776 103.413 133.897 100.534L132.482 101.948C134.986 104.452 136.227 107.447 136.227 110.991H138.227ZM133.897 100.534C131.017 97.6538 127.506 96.2036 123.42 96.2036V98.2036C126.978 98.2036 129.979 99.4448 132.482 101.948L133.897 100.534ZM123.42 96.2036H121.326V98.2036H123.42V96.2036ZM138.179 97.2036V96.2036H137.179V97.2036H138.179ZM138.179 124.797H137.179V125.797H138.179V124.797ZM145.853 124.797V125.797H146.853V124.797H145.853ZM145.853 117.732V116.732H144.853V117.732H145.853ZM151.204 117.732V118.732L151.213 118.732L151.204 117.732ZM158.402 114.704L159.112 115.409L159.114 115.407L158.402 114.704ZM158.402 100.25L157.691 100.953L157.693 100.955L158.402 100.25ZM151.204 97.2036L151.213 96.2036H151.204V97.2036ZM145.853 109.753H144.853V110.753H145.853V109.753ZM145.853 105.982V104.982H144.853V105.982H145.853ZM137.179 97.2036V124.797H139.179V97.2036H137.179ZM138.179 125.797H145.853V123.797H138.179V125.797ZM146.853 124.797V117.732H144.853V124.797H146.853ZM145.853 118.732H151.204V116.732H145.853V118.732ZM151.213 118.732C154.294 118.704 156.945 117.589 159.112 115.409L157.693 113.999C155.899 115.805 153.751 116.709 151.195 116.732L151.213 118.732ZM159.114 115.407C161.279 113.214 162.373 110.549 162.373 107.468H160.373C160.373 110.023 159.486 112.183 157.691 114.002L159.114 115.407ZM162.373 107.468C162.373 104.386 161.279 101.727 159.112 99.5456L157.693 100.955C159.487 102.761 160.373 104.913 160.373 107.468H162.373ZM159.114 99.5479C156.948 97.354 154.296 96.2314 151.213 96.2037L151.195 98.2036C153.749 98.2266 155.896 99.1353 157.691 100.953L159.114 99.5479ZM151.204 96.2036H138.179V98.2036H151.204V96.2036ZM146.853 109.753V105.982H144.853V109.753H146.853ZM145.853 106.982H150.519V104.982H145.853V106.982ZM150.519 106.982C150.774 106.982 150.964 107.061 151.144 107.242L152.559 105.828C152.003 105.272 151.304 104.982 150.519 104.982V106.982ZM151.144 107.242C151.325 107.422 151.404 107.612 151.404 107.868H153.404C153.404 107.082 153.114 106.383 152.559 105.828L151.144 107.242ZM151.404 107.868C151.404 108.123 151.325 108.313 151.144 108.494L152.559 109.908C153.114 109.352 153.404 108.653 153.404 107.868H151.404ZM151.144 108.494C150.964 108.674 150.774 108.753 150.519 108.753V110.753C151.304 110.753 152.003 110.463 152.559 109.908L151.144 108.494ZM150.519 108.753H145.853V110.753H150.519V108.753ZM162.325 97.2036V96.2036H161.325V97.2036H162.325ZM162.325 124.797H161.325V125.797H162.325V124.797ZM182.32 124.797V125.797H183.32V124.797H182.32ZM182.32 117.123H183.32V116.123H182.32V117.123ZM170 117.123H169V118.123H170V117.123ZM170 114.837V113.837H169V114.837H170ZM182.32 114.837V115.837H183.32V114.837H182.32ZM182.32 107.163H183.32V106.163H182.32V107.163ZM170 107.163H169V108.163H170V107.163ZM170 104.859V103.859H169V104.859H170ZM182.32 104.859V105.859H183.32V104.859H182.32ZM182.32 97.2036H183.32V96.2036H182.32V97.2036ZM161.325 97.2036V124.797H163.325V97.2036H161.325ZM162.325 125.797H182.32V123.797H162.325V125.797ZM183.32 124.797V117.123H181.32V124.797H183.32ZM182.32 116.123H170V118.123H182.32V116.123ZM171 117.123V114.837H169V117.123H171ZM170 115.837H182.32V113.837H170V115.837ZM183.32 114.837V107.163H181.32V114.837H183.32ZM182.32 106.163H170V108.163H182.32V106.163ZM171 107.163V104.859H169V107.163H171ZM170 105.859H182.32V103.859H170V105.859ZM183.32 104.859V97.2036H181.32V104.859H183.32ZM182.32 96.2036H162.325V98.2036H182.32V96.2036ZM201.135 111.543L200.321 112.124L202.135 114.667V111.543H201.135ZM190.909 97.2036L191.723 96.623L191.424 96.2036H190.909V97.2036ZM183.272 97.2036V96.2036H182.272V97.2036H183.272ZM183.272 124.797H182.272V125.797H183.272V124.797ZM190.947 124.797V125.797H191.947V124.797H190.947ZM190.947 110.438L191.762 109.86L189.947 107.301V110.438H190.947ZM201.135 124.797L200.319 125.376L200.618 125.797H201.135V124.797ZM208.809 124.797V125.797H209.809V124.797H208.809ZM208.809 97.2036H209.809V96.2036H208.809V97.2036ZM201.135 97.2036V96.2036H200.135V97.2036H201.135ZM201.949 110.962L191.723 96.623L190.095 97.7842L200.321 112.124L201.949 110.962ZM190.909 96.2036H183.272V98.2036H190.909V96.2036ZM182.272 97.2036V124.797H184.272V97.2036H182.272ZM183.272 125.797H190.947V123.797H183.272V125.797ZM191.947 124.797V110.438H189.947V124.797H191.947ZM190.131 111.017L200.319 125.376L201.95 124.218L191.762 109.86L190.131 111.017ZM201.135 125.797H208.809V123.797H201.135V125.797ZM209.809 124.797V97.2036H207.809V124.797H209.809ZM208.809 96.2036H201.135V98.2036H208.809V96.2036ZM200.135 97.2036V111.543H202.135V97.2036H200.135Z" fill="white"/>
<path d="M5 5V59.4688H14.7351V14.7073H66.3854V5H5Z" stroke="white" stroke-width="2"/>
<path d="M254 173.594V119.125H244.265V163.886H192.615V173.594H254Z" stroke="white" stroke-width="2"/>
</g>
<g filter="url(#filter2_d_9_6563)">
<path d="M99.5215 52.2036H100.521V51.2036H99.5215V52.2036ZM99.5215 79.7969V80.7969H100.521V79.7969H99.5215ZM99.5215 72.1226H100.521V71.1226H99.5215V72.1226ZM84.4585 70.3325L85.1656 69.6254L85.1618 69.6217L84.4585 70.3325ZM84.4204 61.6489L83.7133 60.9418L83.7095 60.9456L84.4204 61.6489ZM99.5215 59.8589V60.8589H100.521V59.8589H99.5215ZM99.5215 51.2036H88.8003V53.2036H99.5215V51.2036ZM88.8003 51.2036C84.715 51.2036 81.2039 52.6538 78.3241 55.5336L79.7384 56.9478C82.2414 54.4448 85.243 53.2036 88.8003 53.2036V51.2036ZM78.3241 55.5336C75.4451 58.4127 73.9941 61.9171 73.9941 65.9907H75.9941C75.9941 62.4472 77.2346 59.4516 79.7384 56.9478L78.3241 55.5336ZM73.9941 65.9907C73.9941 70.076 75.4444 73.5871 78.3241 76.4669L79.7384 75.0527C77.2353 72.5496 75.9941 69.548 75.9941 65.9907H73.9941ZM78.3241 76.4669C81.2039 79.3466 84.715 80.7969 88.8003 80.7969V78.7969C85.243 78.7969 82.2414 77.5557 79.7384 75.0527L78.3241 76.4669ZM88.8003 80.7969H99.5215V78.7969H88.8003V80.7969ZM100.521 79.7969V72.1226H98.5215V79.7969H100.521ZM99.5215 71.1226H88.8003V73.1226H99.5215V71.1226ZM88.8003 71.1226C87.3619 71.1226 86.1697 70.6296 85.1656 69.6254L83.7514 71.0396C85.134 72.4222 86.8363 73.1226 88.8003 73.1226V71.1226ZM85.1618 69.6217C84.1462 68.6167 83.6494 67.4256 83.6494 65.9907H81.6494C81.6494 67.9581 82.3587 69.6616 83.7551 71.0434L85.1618 69.6217ZM83.6494 65.9907C83.6494 64.549 84.1386 63.3556 85.1313 62.3522L83.7095 60.9456C82.3409 62.329 81.6494 64.0301 81.6494 65.9907H83.6494ZM85.1275 62.356C86.1286 61.355 87.3321 60.8589 88.8003 60.8589V58.8589C86.8154 58.8589 85.099 59.5561 83.7133 60.9418L85.1275 62.356ZM88.8003 60.8589H99.5215V58.8589H88.8003V60.8589ZM100.521 59.8589V52.2036H98.5215V59.8589H100.521ZM108.148 52.2036H109.148V51.2036H108.148V52.2036ZM100.474 52.2036V51.2036H99.4736V52.2036H100.474ZM100.474 79.7969H99.4736V80.7969H100.474V79.7969ZM121.421 79.7969V80.7969H122.421V79.7969H121.421ZM121.421 72.1226H122.421V71.1226H121.421V72.1226ZM108.148 72.1226H107.148V73.1226H108.148V72.1226ZM108.148 51.2036H100.474V53.2036H108.148V51.2036ZM99.4736 52.2036V79.7969H101.474V52.2036H99.4736ZM100.474 80.7969H121.421V78.7969H100.474V80.7969ZM122.421 79.7969V72.1226H120.421V79.7969H122.421ZM121.421 71.1226H108.148V73.1226H121.421V71.1226ZM109.148 72.1226V52.2036H107.148V72.1226H109.148ZM122.373 79.7969H121.373V80.7969H122.373V79.7969ZM130.047 79.7969V80.7969H131.047V79.7969H130.047ZM130.047 52.2036H131.047V51.2036H130.047V52.2036ZM122.373 52.2036V51.2036H121.373V52.2036H122.373ZM122.373 80.7969H130.047V78.7969H122.373V80.7969ZM131.047 79.7969V52.2036H129.047V79.7969H131.047ZM130.047 51.2036H122.373V53.2036H130.047V51.2036ZM121.373 52.2036V79.7969H123.373V52.2036H121.373ZM155.546 52.2036H156.546V51.2036H155.546V52.2036ZM155.546 79.7969V80.7969H156.546V79.7969H155.546ZM155.546 72.1226H156.546V71.1226H155.546V72.1226ZM140.483 70.3325L141.19 69.6254L141.186 69.6217L140.483 70.3325ZM140.445 61.6489L139.738 60.9418L139.734 60.9456L140.445 61.6489ZM155.546 59.8589V60.8589H156.546V59.8589H155.546ZM155.546 51.2036H144.825V53.2036H155.546V51.2036ZM144.825 51.2036C140.739 51.2036 137.228 52.6538 134.349 55.5336L135.763 56.9478C138.266 54.4448 141.267 53.2036 144.825 53.2036V51.2036ZM134.349 55.5336C131.469 58.4127 130.019 61.9171 130.019 65.9907H132.019C132.019 62.4472 133.259 59.4516 135.763 56.9478L134.349 55.5336ZM130.019 65.9907C130.019 70.076 131.469 73.5871 134.349 76.4669L135.763 75.0527C133.26 72.5496 132.019 69.548 132.019 65.9907H130.019ZM134.349 76.4669C137.228 79.3466 140.739 80.7969 144.825 80.7969V78.7969C141.267 78.7969 138.266 77.5557 135.763 75.0527L134.349 76.4669ZM144.825 80.7969H155.546V78.7969H144.825V80.7969ZM156.546 79.7969V72.1226H154.546V79.7969H156.546ZM155.546 71.1226H144.825V73.1226H155.546V71.1226ZM144.825 71.1226C143.386 71.1226 142.194 70.6296 141.19 69.6254L139.776 71.0396C141.158 72.4222 142.861 73.1226 144.825 73.1226V71.1226ZM141.186 69.6217C140.171 68.6167 139.674 67.4256 139.674 65.9907H137.674C137.674 67.9581 138.383 69.6616 139.78 71.0434L141.186 69.6217ZM139.674 65.9907C139.674 64.549 140.163 63.3556 141.156 62.3522L139.734 60.9456C138.365 62.329 137.674 64.0301 137.674 65.9907H139.674ZM141.152 62.356C142.153 61.355 143.357 60.8589 144.825 60.8589V58.8589C142.84 58.8589 141.123 59.5561 139.738 60.9418L141.152 62.356ZM144.825 60.8589H155.546V58.8589H144.825V60.8589ZM156.546 59.8589V52.2036H154.546V59.8589H156.546ZM172.113 52.2036V51.2036H171.608L171.308 51.6105L172.113 52.2036ZM164.172 62.9819H163.172V66.0252L164.977 63.5751L164.172 62.9819ZM164.172 52.2036H165.172V51.2036H164.172V52.2036ZM156.498 52.2036V51.2036H155.498V52.2036H156.498ZM156.498 79.7969H155.498V80.7969H156.498V79.7969ZM164.172 79.7969V80.7969H165.172V79.7969H164.172ZM164.172 72.77L164.926 72.1125L163.172 70.1031V72.77H164.172ZM170.304 79.7969L169.551 80.4544L169.85 80.7969H170.304V79.7969ZM190.356 79.7969V80.7969H191.356V79.7969H190.356ZM190.356 72.1226H191.356V71.1226H190.356V72.1226ZM174.018 72.1226L173.261 72.7761L173.56 73.1226H174.018V72.1226ZM170.285 67.7998L169.486 67.1981L169.001 67.8426L169.528 68.4533L170.285 67.7998ZM182.035 52.2036L182.833 52.8053L184.04 51.2036H182.035V52.2036ZM171.308 51.6105L163.367 62.3888L164.977 63.5751L172.918 52.7968L171.308 51.6105ZM165.172 62.9819V52.2036H163.172V62.9819H165.172ZM164.172 51.2036H156.498V53.2036H164.172V51.2036ZM155.498 52.2036V79.7969H157.498V52.2036H155.498ZM156.498 80.7969H164.172V78.7969H156.498V80.7969ZM165.172 79.7969V72.77H163.172V79.7969H165.172ZM163.419 73.4275L169.551 80.4544L171.058 79.1394L164.926 72.1125L163.419 73.4275ZM170.304 80.7969H190.356V78.7969H170.304V80.7969ZM191.356 79.7969V72.1226H189.356V79.7969H191.356ZM190.356 71.1226H174.018V73.1226H190.356V71.1226ZM174.774 71.469L171.042 67.1463L169.528 68.4533L173.261 72.7761L174.774 71.469ZM171.084 68.4015L182.833 52.8053L181.236 51.6019L169.486 67.1981L171.084 68.4015ZM182.035 51.2036H172.113V53.2036H182.035V51.2036ZM48.2197 97.2036V96.2036H47.2197V97.2036H48.2197ZM48.2197 104.859H47.2197V105.859H48.2197V104.859ZM55.3037 104.859H56.3037V103.859H55.3037V104.859ZM55.3037 124.797H54.3037V125.797H55.3037V124.797ZM62.978 124.797V125.797H63.978V124.797H62.978ZM62.978 104.859V103.859H61.978V104.859H62.978ZM70.062 104.859V105.859H71.062V104.859H70.062ZM70.062 97.2036H71.062V96.2036H70.062V97.2036ZM47.2197 97.2036V104.859H49.2197V97.2036H47.2197ZM48.2197 105.859H55.3037V103.859H48.2197V105.859ZM54.3037 104.859V124.797H56.3037V104.859H54.3037ZM55.3037 125.797H62.978V123.797H55.3037V125.797ZM63.978 124.797V104.859H61.978V124.797H63.978ZM62.978 105.859H70.062V103.859H62.978V105.859ZM71.062 104.859V97.2036H69.062V104.859H71.062ZM70.062 96.2036H48.2197V98.2036H70.062V96.2036ZM79.355 115.333L80.0621 114.625L80.0583 114.622L79.355 115.333ZM79.3169 106.649L78.6098 105.942L78.606 105.946L79.3169 106.649ZM90.1714 106.649L90.8823 105.946L90.8785 105.942L90.1714 106.649ZM90.1333 115.333L89.4299 114.622L89.4262 114.625L90.1333 115.333ZM83.6968 116.123C82.2584 116.123 81.0662 115.63 80.0621 114.625L78.6479 116.04C80.0305 117.422 81.7328 118.123 83.6968 118.123V116.123ZM80.0583 114.622C79.0427 113.617 78.5459 112.426 78.5459 110.991H76.5459C76.5459 112.958 77.2552 114.662 78.6516 116.043L80.0583 114.622ZM78.5459 110.991C78.5459 109.549 79.0351 108.356 80.0278 107.352L78.606 105.946C77.2374 107.329 76.5459 109.03 76.5459 110.991H78.5459ZM80.024 107.356C81.025 106.355 82.2286 105.859 83.6968 105.859V103.859C81.7118 103.859 79.9955 104.556 78.6098 105.942L80.024 107.356ZM83.6968 105.859H85.7915V103.859H83.6968V105.859ZM85.7915 105.859C87.2597 105.859 88.4632 106.355 89.4643 107.356L90.8785 105.942C89.4928 104.556 87.7764 103.859 85.7915 103.859V105.859ZM89.4605 107.352C90.4532 108.356 90.9424 109.549 90.9424 110.991H92.9424C92.9424 109.03 92.2509 107.329 90.8823 105.946L89.4605 107.352ZM90.9424 110.991C90.9424 112.426 90.4456 113.617 89.4299 114.622L90.8367 116.043C92.2331 114.662 92.9424 112.958 92.9424 110.991H90.9424ZM89.4262 114.625C88.4221 115.63 87.2298 116.123 85.7915 116.123V118.123C87.7555 118.123 89.4578 117.422 90.8404 116.04L89.4262 114.625ZM85.7915 116.123H83.6968V118.123H85.7915V116.123ZM83.6968 96.2036C79.6115 96.2036 76.1004 97.6538 73.2206 100.534L74.6348 101.948C77.1379 99.4448 80.1395 98.2036 83.6968 98.2036V96.2036ZM73.2206 100.534C70.3416 103.413 68.8906 106.917 68.8906 110.991H70.8906C70.8906 107.447 72.1311 104.452 74.6348 101.948L73.2206 100.534ZM68.8906 110.991C68.8906 115.076 70.3409 118.587 73.2206 121.467L74.6348 120.053C72.1318 117.55 70.8906 114.548 70.8906 110.991H68.8906ZM73.2206 121.467C76.1004 124.347 79.6115 125.797 83.6968 125.797V123.797C80.1395 123.797 77.1379 122.556 74.6348 120.053L73.2206 121.467ZM83.6968 125.797H85.7915V123.797H83.6968V125.797ZM85.7915 125.797C89.8768 125.797 93.3879 124.347 96.2677 121.467L94.8534 120.053C92.3504 122.556 89.3488 123.797 85.7915 123.797V125.797ZM96.2677 121.467C99.1474 118.587 100.598 115.076 100.598 110.991H98.5977C98.5977 114.548 97.3565 117.55 94.8534 120.053L96.2677 121.467ZM100.598 110.991C100.598 106.917 99.1467 103.413 96.2677 100.534L94.8534 101.948C97.3572 104.452 98.5977 107.447 98.5977 110.991H100.598ZM96.2677 100.534C93.3879 97.6538 89.8768 96.2036 85.7915 96.2036V98.2036C89.3488 98.2036 92.3504 99.4448 94.8534 101.948L96.2677 100.534ZM85.7915 96.2036H83.6968V98.2036H85.7915V96.2036ZM116.984 115.333L117.691 114.625L117.687 114.622L116.984 115.333ZM116.946 106.649L116.239 105.942L116.235 105.946L116.946 106.649ZM127.8 106.649L128.511 105.946L128.507 105.942L127.8 106.649ZM127.762 115.333L127.059 114.622L127.055 114.625L127.762 115.333ZM121.326 116.123C119.887 116.123 118.695 115.63 117.691 114.625L116.277 116.04C117.659 117.422 119.362 118.123 121.326 118.123V116.123ZM117.687 114.622C116.672 113.617 116.175 112.426 116.175 110.991H114.175C114.175 112.958 114.884 114.662 116.281 116.043L117.687 114.622ZM116.175 110.991C116.175 109.549 116.664 108.356 117.657 107.352L116.235 105.946C114.866 107.329 114.175 109.03 114.175 110.991H116.175ZM117.653 107.356C118.654 106.355 119.857 105.859 121.326 105.859V103.859C119.341 103.859 117.624 104.556 116.239 105.942L117.653 107.356ZM121.326 105.859H123.42V103.859H121.326V105.859ZM123.42 105.859C124.889 105.859 126.092 106.355 127.093 107.356L128.507 105.942C127.122 104.556 125.405 103.859 123.42 103.859V105.859ZM127.089 107.352C128.082 108.356 128.571 109.549 128.571 110.991H130.571C130.571 109.03 129.88 107.329 128.511 105.946L127.089 107.352ZM128.571 110.991C128.571 112.426 128.075 113.617 127.059 114.622L128.466 116.043C129.862 114.662 130.571 112.958 130.571 110.991H128.571ZM127.055 114.625C126.051 115.63 124.859 116.123 123.42 116.123V118.123C125.384 118.123 127.087 117.422 128.469 116.04L127.055 114.625ZM123.42 116.123H121.326V118.123H123.42V116.123ZM121.326 96.2036C117.24 96.2036 113.729 97.6538 110.85 100.534L112.264 101.948C114.767 99.4448 117.768 98.2036 121.326 98.2036V96.2036ZM110.85 100.534C107.97 103.413 106.52 106.917 106.52 110.991H108.52C108.52 107.447 109.76 104.452 112.264 101.948L110.85 100.534ZM106.52 110.991C106.52 115.076 107.97 118.587 110.85 121.467L112.264 120.053C109.761 117.55 108.52 114.548 108.52 110.991H106.52ZM110.85 121.467C113.729 124.347 117.24 125.797 121.326 125.797V123.797C117.768 123.797 114.767 122.556 112.264 120.053L110.85 121.467ZM121.326 125.797H123.42V123.797H121.326V125.797ZM123.42 125.797C127.506 125.797 131.017 124.347 133.897 121.467L132.482 120.053C129.979 122.556 126.978 123.797 123.42 123.797V125.797ZM133.897 121.467C136.776 118.587 138.227 115.076 138.227 110.991H136.227C136.227 114.548 134.985 117.55 132.482 120.053L133.897 121.467ZM138.227 110.991C138.227 106.917 136.776 103.413 133.897 100.534L132.482 101.948C134.986 104.452 136.227 107.447 136.227 110.991H138.227ZM133.897 100.534C131.017 97.6538 127.506 96.2036 123.42 96.2036V98.2036C126.978 98.2036 129.979 99.4448 132.482 101.948L133.897 100.534ZM123.42 96.2036H121.326V98.2036H123.42V96.2036ZM138.179 97.2036V96.2036H137.179V97.2036H138.179ZM138.179 124.797H137.179V125.797H138.179V124.797ZM145.853 124.797V125.797H146.853V124.797H145.853ZM145.853 117.732V116.732H144.853V117.732H145.853ZM151.204 117.732V118.732L151.213 118.732L151.204 117.732ZM158.402 114.704L159.112 115.409L159.114 115.407L158.402 114.704ZM158.402 100.25L157.691 100.953L157.693 100.955L158.402 100.25ZM151.204 97.2036L151.213 96.2036H151.204V97.2036ZM145.853 109.753H144.853V110.753H145.853V109.753ZM145.853 105.982V104.982H144.853V105.982H145.853ZM137.179 97.2036V124.797H139.179V97.2036H137.179ZM138.179 125.797H145.853V123.797H138.179V125.797ZM146.853 124.797V117.732H144.853V124.797H146.853ZM145.853 118.732H151.204V116.732H145.853V118.732ZM151.213 118.732C154.294 118.704 156.945 117.589 159.112 115.409L157.693 113.999C155.899 115.805 153.751 116.709 151.195 116.732L151.213 118.732ZM159.114 115.407C161.279 113.214 162.373 110.549 162.373 107.468H160.373C160.373 110.023 159.486 112.183 157.691 114.002L159.114 115.407ZM162.373 107.468C162.373 104.386 161.279 101.727 159.112 99.5456L157.693 100.955C159.487 102.761 160.373 104.913 160.373 107.468H162.373ZM159.114 99.5479C156.948 97.354 154.296 96.2314 151.213 96.2037L151.195 98.2036C153.749 98.2266 155.896 99.1353 157.691 100.953L159.114 99.5479ZM151.204 96.2036H138.179V98.2036H151.204V96.2036ZM146.853 109.753V105.982H144.853V109.753H146.853ZM145.853 106.982H150.519V104.982H145.853V106.982ZM150.519 106.982C150.774 106.982 150.964 107.061 151.144 107.242L152.559 105.828C152.003 105.272 151.304 104.982 150.519 104.982V106.982ZM151.144 107.242C151.325 107.422 151.404 107.612 151.404 107.868H153.404C153.404 107.082 153.114 106.383 152.559 105.828L151.144 107.242ZM151.404 107.868C151.404 108.123 151.325 108.313 151.144 108.494L152.559 109.908C153.114 109.352 153.404 108.653 153.404 107.868H151.404ZM151.144 108.494C150.964 108.674 150.774 108.753 150.519 108.753V110.753C151.304 110.753 152.003 110.463 152.559 109.908L151.144 108.494ZM150.519 108.753H145.853V110.753H150.519V108.753ZM162.325 97.2036V96.2036H161.325V97.2036H162.325ZM162.325 124.797H161.325V125.797H162.325V124.797ZM182.32 124.797V125.797H183.32V124.797H182.32ZM182.32 117.123H183.32V116.123H182.32V117.123ZM170 117.123H169V118.123H170V117.123ZM170 114.837V113.837H169V114.837H170ZM182.32 114.837V115.837H183.32V114.837H182.32ZM182.32 107.163H183.32V106.163H182.32V107.163ZM170 107.163H169V108.163H170V107.163ZM170 104.859V103.859H169V104.859H170ZM182.32 104.859V105.859H183.32V104.859H182.32ZM182.32 97.2036H183.32V96.2036H182.32V97.2036ZM161.325 97.2036V124.797H163.325V97.2036H161.325ZM162.325 125.797H182.32V123.797H162.325V125.797ZM183.32 124.797V117.123H181.32V124.797H183.32ZM182.32 116.123H170V118.123H182.32V116.123ZM171 117.123V114.837H169V117.123H171ZM170 115.837H182.32V113.837H170V115.837ZM183.32 114.837V107.163H181.32V114.837H183.32ZM182.32 106.163H170V108.163H182.32V106.163ZM171 107.163V104.859H169V107.163H171ZM170 105.859H182.32V103.859H170V105.859ZM183.32 104.859V97.2036H181.32V104.859H183.32ZM182.32 96.2036H162.325V98.2036H182.32V96.2036ZM201.135 111.543L200.321 112.124L202.135 114.667V111.543H201.135ZM190.909 97.2036L191.723 96.623L191.424 96.2036H190.909V97.2036ZM183.272 97.2036V96.2036H182.272V97.2036H183.272ZM183.272 124.797H182.272V125.797H183.272V124.797ZM190.947 124.797V125.797H191.947V124.797H190.947ZM190.947 110.438L191.762 109.86L189.947 107.301V110.438H190.947ZM201.135 124.797L200.319 125.376L200.618 125.797H201.135V124.797ZM208.809 124.797V125.797H209.809V124.797H208.809ZM208.809 97.2036H209.809V96.2036H208.809V97.2036ZM201.135 97.2036V96.2036H200.135V97.2036H201.135ZM201.949 110.962L191.723 96.623L190.095 97.7842L200.321 112.124L201.949 110.962ZM190.909 96.2036H183.272V98.2036H190.909V96.2036ZM182.272 97.2036V124.797H184.272V97.2036H182.272ZM183.272 125.797H190.947V123.797H183.272V125.797ZM191.947 124.797V110.438H189.947V124.797H191.947ZM190.131 111.017L200.319 125.376L201.95 124.218L191.762 109.86L190.131 111.017ZM201.135 125.797H208.809V123.797H201.135V125.797ZM209.809 124.797V97.2036H207.809V124.797H209.809ZM208.809 96.2036H201.135V98.2036H208.809V96.2036ZM200.135 97.2036V111.543H202.135V97.2036H200.135Z" fill="white"/>
<path d="M5 5V59.4688H14.7351V14.7073H66.3854V5H5Z" stroke="white" stroke-width="2"/>
<path d="M254 173.594V119.125H244.265V163.886H192.615V173.594H254Z" stroke="white" stroke-width="2"/>
</g>
<defs>
<filter id="filter0_d_9_6563" x="0" y="0" width="259" height="178.594" filterUnits="userSpaceOnUse" color-interpolation-filters="sRGB">
<feFlood flood-opacity="0" result="BackgroundImageFix"/>
<feColorMatrix in="SourceAlpha" type="matrix" values="0 0 0 0 0 0 0 0 0 0 0 0 0 0 0 0 0 0 127 0" result="hardAlpha"/>
<feOffset/>
<feGaussianBlur stdDeviation="2"/>
<feComposite in2="hardAlpha" operator="out"/>
<feColorMatrix type="matrix" values="0 0 0 0 0.701961 0 0 0 0 0.466667 0 0 0 0 1 0 0 0 1 0"/>
<feBlend mode="normal" in2="BackgroundImageFix" result="effect1_dropShadow_9_6563"/>
<feBlend mode="normal" in="SourceGraphic" in2="effect1_dropShadow_9_6563" result="shape"/>
</filter>
<filter id="filter1_d_9_6563" x="0" y="0" width="259" height="178.594" filterUnits="userSpaceOnUse" color-interpolation-filters="sRGB">
<feFlood flood-opacity="0" result="BackgroundImageFix"/>
<feColorMatrix in="SourceAlpha" type="matrix" values="0 0 0 0 0 0 0 0 0 0 0 0 0 0 0 0 0 0 127 0" result="hardAlpha"/>
<feOffset/>
<feGaussianBlur stdDeviation="2"/>
<feComposite in2="hardAlpha" operator="out"/>
<feColorMatrix type="matrix" values="0 0 0 0 0.701961 0 0 0 0 0.466667 0 0 0 0 1 0 0 0 1 0"/>
<feBlend mode="normal" in2="BackgroundImageFix" result="effect1_dropShadow_9_6563"/>
<feBlend mode="normal" in="SourceGraphic" in2="effect1_dropShadow_9_6563" result="shape"/>
</filter>
<filter id="filter2_d_9_6563" x="0" y="0" width="259" height="178.594" filterUnits="userSpaceOnUse" color-interpolation-filters="sRGB">
<feFlood flood-opacity="0" result="BackgroundImageFix"/>
<feColorMatrix in="SourceAlpha" type="matrix" values="0 0 0 0 0 0 0 0 0 0 0 0 0 0 0 0 0 0 127 0" result="hardAlpha"/>
<feOffset/>
<feGaussianBlur stdDeviation="2"/>
<feComposite in2="hardAlpha" operator="out"/>
<feColorMatrix type="matrix" values="0 0 0 0 0.701961 0 0 0 0 0.466667 0 0 0 0 1 0 0 0 1 0"/>
<feBlend mode="normal" in2="BackgroundImageFix" result="effect1_dropShadow_9_6563"/>
<feBlend mode="normal" in="SourceGraphic" in2="effect1_dropShadow_9_6563" result="shape"/>
</filter>
</defs>
</svg>
