<?xml version="1.0" encoding="utf-8"?>
<!-- Generator: Adobe Illustrator 24.3.0, SVG Export Plug-In . SVG Version: 6.00 Build 0)  -->
<svg version="1.1" id="Capa_1" xmlns="http://www.w3.org/2000/svg" xmlns:xlink="http://www.w3.org/1999/xlink" x="0px" y="0px"
	 viewBox="0 0 86 79" style="enable-background:new 0 0 86 79;" xml:space="preserve">
<g>
	<path d="M226.1-50.7c-0.1-0.2-0.3-0.2-0.5-0.3c-2.4-1-3.6-2.9-3.6-5.5c0-13.2,0-26.3,0-39.5c0-1.9,0-3.9,0-5.8
		c0-3.6,2.2-5.8,5.8-5.8c3.8,0,7.7-0.1,11.5,0c1.3,0,1.6-0.4,1.4-1.5c-0.1-0.6,0-1.3,0-1.9c0.1-2.6,1.3-4.5,3.6-5.5
		c2.4-1,4.6-0.6,6.5,1c2.4,2.1,4.8,4.3,7.1,6.4c0.6,0.6,1,0.6,1.6,0c2.3-2.1,4.6-4.1,6.9-6.2c2-1.8,4.2-2.3,6.7-1.3
		c2.5,1.1,3.6,3,3.7,5.7c0,0.1,0,0.2,0,0.2c0.1,0.9-0.4,2.2,0.2,2.8c0.6,0.7,1.9,0.2,2.8,0.2c3.3,0,6.6,0,10,0
		c3.6,0,5.8,2.2,5.8,5.8c0,15.1,0,30.3,0,45.4c0,3-1.6,4.7-4.2,5.7C269.8-50.7,247.9-50.7,226.1-50.7z M242.5-104
		c-4.9,0-9.7,0-14.6,0c-1.7,0-2.3,0.6-2.3,2.3c0,3.6,0,7.3,0,10.9c0,0.8,0.3,1.3,0.8,1.9c11.3,11.3,22.6,22.6,33.9,34
		c0.5,0.5,1,0.7,1.8,0.7c9.2,0,18.4,0,27.7,0c1.9,0,2.5-0.6,2.5-2.5c0-4,0-7.9,0-11.9c0-0.8-0.3-1.4-0.8-2
		c-10.9-10.9-21.7-21.7-32.6-32.6c-0.6-0.6-1.2-0.8-2.1-0.8C252-104,247.3-104,242.5-104z M225.6-84.3c0,2.3,0,4.5,0,6.8
		c0,0.5,0.2,0.8,0.5,1.1c7.2,7.2,14.4,14.4,21.6,21.7c0.2,0.2,0.5,0.5,0.9,0.5c2.4,0,4.7,0,7,0C245.6-64.3,235.7-74.3,225.6-84.3z
		 M292.2-75.2c0-2,0-4.2,0-6.3c0-0.8-0.2-1.3-0.8-1.9c-5.8-5.8-11.7-11.5-17.3-17.4c-2.3-2.5-4.7-3.8-8.1-3.3
		c-0.9,0.2-1.8-0.1-2.6,0.1C273.1-94.4,282.7-84.8,292.2-75.2z M225.6-71.6c0,5.1,0,10.1,0,15c0,1.7,0.6,2.3,2.4,2.3
		c4.7,0,9.3,0,14,0c0.3,0,0.7,0.1,0.9-0.1C237.2-60.1,231.5-65.8,225.6-71.6z M276.2-104c5.4,5.4,10.7,10.7,16,16
		c0,0,0.1-0.1,0.1-0.2c0-4.6,0-9.2,0-13.8c0-1.5-0.7-2-2.2-2c-3.9,0-7.8,0-11.6,0C277.7-104,276.9-104,276.2-104z M263.4-107.6
		c2.6,0,4.7,0,6.9,0c3.5,0,3.5,0,3.1-3.5c0-0.1,0-0.2,0-0.2c-0.3-1.7-2.2-2.8-3.6-1.8C267.7-111.5,265.7-109.6,263.4-107.6z
		 M254.1-107.6c0-0.1,0.1-0.2,0.1-0.3c-2-1.8-4-3.7-6.1-5.3c-1.4-1.1-3.4,0.2-3.6,2c-0.1,0.9,0,1.9,0,2.8c0,0.4,0.1,0.7,0.6,0.7
		C248-107.6,251-107.6,254.1-107.6z"/>
</g>
<g>
	<path d="M219.1,16.1c1.5-3.6,2.9-7.3,4.4-10.9c0.1-0.4,0.2-0.8,0.2-1.1c0-3.4,0-6.7,0-10.1c0-3.5,2.1-5.6,5.6-5.6
		c0.8,0,1.2-0.3,1.4-1c0.7-1.9,1.5-3.8,2.3-5.7c1.2-2.9,3.9-4.1,6.9-2.9c1.5,0.6,2.9,1.2,4.3,1.8c0.9,0.4,1.2,1,0.9,1.6
		c-0.3,0.7-0.9,0.9-1.8,0.6c-1.4-0.6-2.8-1.1-4.2-1.7c-1.8-0.7-3.2-0.1-3.9,1.6c-0.8,1.9-1.5,3.8-2.3,5.7c8.1,0,16.1,0,24.3,0
		c-0.3-0.2-0.5-0.3-0.7-0.3c-2.7-1.1-5.5-2.2-8.2-3.3c-0.6-0.2-1-0.5-1-1.2c0-0.9,0.8-1.4,1.8-1c2.7,1.1,5.4,2.2,8.1,3.3
		c1.1,0.4,2.2,0.8,3.2,1.3c2.2,1.1,4.5,1.4,6.9,1.3c7.2-0.1,14.4,0,21.6,0c3.6,0,5.7,2.1,5.7,5.7c0,2,0,4,0,6c0,0.6,0.2,0.9,0.8,1.1
		c2,0.7,3.3,2,3.8,4.1c0.2,1.1,0,2.1-0.4,3.1c-1.3,3.1-2.6,6.3-3.8,9.4c-0.2,0.4-0.2,0.9-0.2,1.3c0,3.4,0,6.7,0,10.1
		c0,3.5-2.1,5.6-5.6,5.6c-0.8,0-1.1,0.2-1.4,0.9c-0.7,2-1.5,3.9-2.3,5.8c-1.2,2.9-4,4.1-6.9,2.9c-2.5-1-5-2-7.5-3
		c-0.9-0.3-1.2-0.9-0.9-1.6c0.3-0.7,0.9-0.9,1.8-0.6c2.4,1,4.8,2,7.2,2.9c1.9,0.8,3.3,0.2,4.1-1.7c0.7-1.8,1.5-3.7,2.3-5.6
		c-8.1,0-16.1,0-24.2,0c0.3,0.1,0.4,0.2,0.6,0.3c1.7,0.7,3.5,1.4,5.2,2.1c0.9,0.4,1.1,1.2,0.6,1.8c-0.5,0.6-1.1,0.5-1.7,0.3
		c-3-1.2-6-2.4-8.9-3.6c-1.6-0.7-3.3-1-5.1-1c-4.3,0.1-8.6,0-12.8,0c-0.2,0-0.5,0-0.7,0c-0.7-0.1-1.1-0.5-1.2-1.1
		c0-0.7,0.4-1.2,1.2-1.2c1.5,0,3,0,4.5,0c0.4,0,0.7,0,1.1,0c0-7.6,0-15.1,0-22.7c-2,1.4-3.6,2.9-5.1,4.7c-1.4,1.8-2.4,3.7-3.1,5.8
		c-0.3,0.9-0.9,1.3-1.5,1c-0.7-0.2-1-0.8-0.7-1.7c0.9-3,2.5-5.6,4.6-8c0.9-1,1.8-2,2.5-2.9c-4.6,0-9.7,0-14.8,0c0,0.3,0,0.6,0,0.8
		c0,6.5,0,13.1,0,19.6c0,2.2,1,3.2,3.3,3.2c1.4,0,2.8,0,4.2,0c0.9,0,1.4,0.4,1.4,1.2c0,0.7-0.5,1.1-1.4,1.2c-1.5,0-3.1,0-4.6,0
		c-3.1-0.1-5.2-2.2-5.2-5.3c0-2.2,0-4.4,0-6.6c0-0.4-0.1-0.7-0.5-0.8c-2.1-0.6-3.5-2.1-4.1-4.2C219.1,17.2,219.1,16.7,219.1,16.1z
		 M249.4,8.7c0.3,0.3,0.6,0.5,0.8,0.7c3.2,2.8,5.6,6.1,6.9,10.2c0.3,0.9,0,1.5-0.7,1.7c-0.7,0.2-1.2-0.1-1.5-1
		c-1.3-4.2-4-7.5-7.5-10.2c-0.2-0.2-0.4-0.3-0.7-0.5c0,7.6,0,15.1,0,22.7c0.3,0,0.5,0,0.8,0c13.9,0,27.8,0,41.7,0
		c2.2,0,3.2-1,3.2-3.2c0-6.5,0-13.1,0-19.6c0-0.3,0-0.6,0-0.8C278,8.7,263.7,8.7,249.4,8.7z M255.9,6.3c0.2,0,0.3,0,0.5,0
		c11.7,0,23.5,0,35.2,0c0.6,0,0.8-0.2,0.8-0.8c0-3.9,0-7.8,0-11.7c0-2.1-1-3.2-3.2-3.2c-13.9,0-27.8,0-41.8,0
		c-0.6,0-0.8,0.2-0.8,0.8c0,3.6,0,7.2,0,10.9c0,0.2,0,0.4,0.1,0.6c1.1-1.3,2-2.6,3.2-3.7c1-0.9,2.2-1.8,3.4-2.4c2-0.9,4.1,0,5.5,2
		c1.2,1.8,1.1,3.8-0.4,5.4C257.6,5,256.7,5.6,255.9,6.3z M244.1,3c0-4.2,0-8.2,0-12.3c-0.3,0-0.5,0-0.7,0c-4.7,0-9.5,0-14.2,0
		c-2.1,0-3.1,1.1-3.1,3.1c0,3.9,0,7.8,0,11.6c0,0.3,0,0.5,0,0.8c3,0,5.9,0,8.8,0c-0.7-0.5-1.3-1-1.9-1.5c-0.9-0.8-1.5-1.7-1.7-2.9
		c-0.5-3.5,3.3-6.3,6.5-5c1.7,0.7,3,2,4.2,3.3C242.7,1.1,243.4,2,244.1,3z M243.3,6.2c-1.5-2.5-3-4.7-5.2-6.4
		c-0.5-0.4-1-0.6-1.6-0.8c-0.9-0.3-1.8,0.1-2.6,1.2c-0.6,0.8-0.6,1.6,0.1,2.4c0.5,0.6,1.2,1.1,1.8,1.5
		C238.2,5.3,240.6,5.9,243.3,6.2z M247.4,6.2c2.7-0.3,5.1-0.9,7.3-2.1c0.7-0.4,1.4-0.9,1.9-1.5c0.3-0.4,0.6-1.1,0.5-1.6
		c-0.3-1.7-2.1-2.5-3.6-1.7c-0.3,0.2-0.7,0.4-1,0.6C250.4,1.6,248.9,3.8,247.4,6.2z M294.7,3.5c0,2.7,0,5.5,0,8.2
		c0.8-1.6,1.5-3.2,2-4.8C297.2,5.3,296.3,3.9,294.7,3.5z M223.7,11.4c-0.1,0-0.1,0-0.2,0c-0.7,1.7-1.4,3.4-2,5.1
		c-0.4,1.4,0.7,2.8,2.1,3.1C223.7,16.8,223.7,14.1,223.7,11.4z"/>
</g>
<g>
	<path d="M81.2,68.9c-1.2,0-2.4,0-3.5,0c-0.7,0-0.8-0.2-0.8-0.8c0-9.9,0-19.8,0-29.6c0-9.8,0-19.6,0-29.4c0-2.8-1.8-4.6-4.7-4.6
		c-19.5,0-39,0-58.5,0c-0.4,0-0.9,0-1.3,0.1c-2,0.5-3.3,2.2-3.3,4.5c0,14.4,0,28.9,0,43.3c0,5.3,0,10.6,0,15.9C9.1,68.8,9,69,8.4,69
		c-1.3-0.1-2.6,0-3.8,0c-0.6,0-0.9,0.3-0.9,0.9c0,0.6,0.4,0.9,0.9,0.9c0.2,0,0.4,0,0.5,0c2.9,0,5.9,0,8.8,0c0.7,0,0.9,0.1,0.9,0.8
		c-0.1,2,0.8,2.8,2.8,2.8c4.3,0,8.6,0,12.9,0c1.2,0,2.3,0,3.5,0c1.4,0,2.3-1,2.4-2.4c0-0.2,0-0.5,0-0.7c-0.1-0.4,0.1-0.6,0.6-0.6
		c1.3,0,2.5,0,3.8,0c1.2,0,1.2,0,1.2,1.2c0,1.7,0.9,2.5,2.6,2.5c2.5,0,5.1,0,7.6,0c1.6,0,2.5-0.9,2.5-2.5c0-0.2,0-0.5,0-0.7
		c0-0.4,0.1-0.5,0.5-0.5c1,0,2.1,0.1,3.1,0c0.7,0,0.9,0.1,0.9,0.8c0,1.9,0.9,2.8,2.8,2.8c2.3,0,4.5,0,6.8,0c2,0,2.9-0.9,2.9-2.9
		c0-0.6,0.2-0.8,0.8-0.7c3,0,6,0,8.9,0c0.8,0,1.2-0.4,1.1-1C82.3,69.2,81.9,68.9,81.2,68.9z M30.8,6.3c0.2,0,0.3,0,0.5,0
		c13.6,0,27.1,0,40.7,0c2.1,0,3,0.9,3,3.1c0,2,0,4,0,6c0,0.5-0.1,0.6-0.6,0.6c-11.1,0-22.2,0-33.3,0c-0.3,0-0.5,0-0.7-0.3
		c-1.6-2.2-3.6-2.9-6.3-2.3c-1.3,0.3-2.5,0.9-3.8,1.8c0-2.9,0-5.6,0-8.3C30.4,6.4,30.5,6.3,30.8,6.3z M30.1,17.7
		c1.4-1.4,3.1-2.3,5.1-2.7c2.2-0.4,4.2,1.2,4.2,3.5c0,2.2-1.9,3.8-4.1,3.5c-2-0.4-3.8-1.3-5.2-2.8C29.6,18.7,29.6,18.2,30.1,17.7z
		 M26.9,7c0-0.7,0.3-0.7,0.8-0.7c0.5,0,0.8,0,0.8,0.7c0,3.1,0,6.2,0,9.2c0,0.6-0.4,1-0.6,1.6c-0.7-0.8-1-1.6-0.9-2.6
		C27,12.4,27,9.7,26.9,7z M27,51c0-8.8,0-17.6,0-26.4c0-1,0.2-1.8,0.9-2.5c0.6,0.6,0.7,1.3,0.7,2c0,10.1,0,20.2,0,30.3
		c0,0.7-0.7,1.2-1.4,0.8c-0.3-0.1-0.2-0.4-0.2-0.6C27,53.5,27,52.2,27,51z M25.8,19c-1,1.4-4.1,3-5.9,3c-2.1,0-3.8-1.7-3.6-3.8
		c0.2-2.2,2-3.6,4.1-3.2c2,0.3,3.8,1.3,5.2,2.8C26,18.2,26.1,18.6,25.8,19z M11,8.8c0-1.4,1-2.5,2.5-2.5c3.7,0,7.4,0,11.1,0
		c0.3,0,0.6-0.1,0.6,0.4c0,2.7,0,5.4,0,8.2c-1.4-0.9-2.8-1.5-4.3-1.8c-2.1-0.4-4.3,0.5-5.5,2.3c-0.2,0.4-0.5,0.5-0.9,0.5
		c-0.9,0-1.9,0-2.8,0c-0.4,0-0.6-0.1-0.6-0.5C11,13.2,11,11,11,8.8z M11.7,17.8c0.7,0.1,1.5,0,2.2,0c0.4,0,0.6,0,0.5,0.5
		c0,0.1,0,0.3,0,0.5c0.1,0.5,0,0.6-0.5,0.6c-0.4,0-0.8,0-1.2,0c-0.3,0-0.6,0-0.9,0c-0.7,0.1-0.9-0.2-0.8-0.8
		C11,18,11.1,17.7,11.7,17.8z M14.5,57.8c0,1.2-0.3,2.4,0.5,3.4c0,0.1,0,0.2,0,0.2c-0.6,2.2-0.1,4.5-0.2,6.8c0,0.5-0.1,0.7-0.7,0.7
		c-0.8-0.1-1.7,0-2.5,0c-0.5,0-0.6-0.1-0.6-0.6c0-3.5,0-7.1,0-10.6c0-11.9,0-23.8,0-35.7c0-0.7,0.2-1,0.9-0.9c0.3,0,0.6,0,0.9,0
		c1.3-0.1,2.4,0.1,3.4,1.3c1.3,1.6,3.3,1.7,5.2,1.2c1.4-0.3,2.6-0.9,3.8-1.7c0.2,0.4-0.1,0.5-0.2,0.7c-1,1.1-2,2.2-3.1,3.4
		c-1.6,1.8-3,3.7-3.9,5.9c-0.4,0.9-0.2,1.4,0.4,1.7c0.6,0.2,1-0.1,1.4-0.9c1.1-2.8,3.1-5,5.3-7.2c0,0.4,0,0.6,0,0.7
		c0,9.4,0,18.9,0,28.3c0,0.6-0.1,0.8-0.8,0.8c-2.4,0-4.9,0-7.3,0C15.4,55.3,14.5,56.2,14.5,57.8z M33.5,72.6c-2.7,0-5.4,0-8.1,0
		c-2.6,0-5.3,0-7.9,0c-0.7,0-0.9-0.2-0.9-0.9c0-2.9,0-5.9,0-8.8c0-0.6,0.2-0.8,0.8-0.8c5.4,0,10.8,0,16.1,0c0.7,0,0.8,0.3,0.8,0.9
		c0,2.9,0,5.8,0,8.7C34.4,72.4,34.2,72.6,33.5,72.6z M34.6,59.5c0,0.6-0.2,0.8-0.8,0.8c-2.8,0-5.5,0-8.3,0c-2.7,0-5.5,0-8.2,0
		c-0.7,0-0.9-0.2-0.9-0.9c0-2.2,0-2.2,2.2-2.2c5,0,10.1,0,15.1,0c0.8,0,1,0.3,0.9,1C34.6,58.6,34.6,59,34.6,59.5z M52.6,72
		c0,0.5-0.2,0.6-0.6,0.6c-2.6,0-5.1,0-7.7,0c-0.5,0-0.6-0.2-0.6-0.7c0-1.2,0-2.4,0-3.6c0-0.4,0.1-0.6,0.6-0.6c1.3,0,2.6,0,3.9,0
		c1.3,0,2.6,0,3.8,0c0.5,0,0.7,0.2,0.6,0.7C52.5,69.7,52.5,70.9,52.6,72z M53.2,66c-3.4,0-6.8,0-10.2,0c-1.4,0-2-0.6-2-2
		c-0.4-7.5-0.9-15.1-1.4-22.6c-0.1-1.2-0.1-1.2,1.2-1.2c5,0,10,0,15,0c0.7,0,0.9,0.1,0.8,0.8c-0.3,3.8-0.5,7.6-0.7,11.4
		c-0.2,3.9-0.5,7.8-0.7,11.7C55.1,65.4,54.6,66,53.2,66z M39.1,38.3c-0.6,0-0.6-0.2-0.7-0.7c0-0.6,0.4-0.4,0.7-0.4c3,0,6,0,9,0
		c3,0,6,0,9,0c0.3,0,0.7-0.2,0.6,0.4c0,0.4-0.1,0.7-0.6,0.7C51.1,38.3,45.1,38.3,39.1,38.3z M68.7,72.6c-2.3,0-4.6,0-6.9,0
		c-0.8,0-1-0.3-1-1c0-1.9,0-3.8,0-5.7c0-1.8,0-3.6,0-5.4c0-1.3,0.4-2.5,1.5-3.3c0.4-0.3,0.7-0.6,0.7-1.1c0.1-0.5,0.3-0.6,0.8-0.6
		c1,0,2,0,3,0c0.3,0,0.5,0,0.6,0.4c0.1,0.6,0.4,1,0.9,1.3c1,0.8,1.4,1.8,1.4,3c0,3.8,0,7.6,0,11.4C69.7,72.4,69.4,72.6,68.7,72.6z
		 M68.1,51c0.4,0,0.5,0.2,0.5,0.5c0,0,0,0.1,0,0.1c0.1,2.1,0.1,2.1-2,2.1c-0.5,0-0.9,0-1.4,0c-0.9,0-1.9,0-2.8,0
		c-0.5,0-0.7-0.3-0.5-0.7c0.2-0.7-0.6-1.8,0.5-1.9C64.2,50.8,66.2,51,68.1,51z M64.4,48.2c0.2-1.1,0.3-2.2,0.3-3.3
		c0-0.4,0-0.8,0.5-0.8c0.5,0,0.5,0.4,0.5,0.8c0,1.2,0.1,2.4,0.3,3.7c0.2,1-0.6,0.3-0.8,0.5C64.4,49.2,64.3,48.9,64.4,48.2z M74.3,69
		c-0.7-0.1-1.5,0-2.2,0c-0.5,0-0.6-0.1-0.6-0.6c0-2.6,0-5.2,0-7.8c0-1.9-0.6-3.5-2-4.7c-0.4-0.3-0.4-0.5,0-0.7c0.7-0.4,1-1.1,1-1.9
		c0-0.7,0-1.4,0-2c0-1.1-0.7-1.9-1.8-2.1c-0.5-0.1-0.6-0.3-0.7-0.7c-0.2-1.2-0.3-2.4-0.3-3.7c0-1.1-0.6-2-1.6-2.3
		c-1-0.3-2,0-2.6,0.8c-0.4,0.5-0.5,1.2-0.5,1.8c0,1.2-0.1,2.4-0.3,3.6c-0.1,0.4-0.2,0.5-0.5,0.5c-1.4,0.3-2,1-2,2.4
		c0,0.5,0,1.1,0,1.6c0,0.8,0.3,1.5,1,1.9c0.4,0.3,0.4,0.5,0,0.8c-1.4,1.2-2,2.7-2,4.6c0,2.6,0,5.2,0,7.8c0,0.5-0.1,0.8-0.7,0.7
		c-1.1-0.1-2.1,0-3.2,0c-0.2,0-0.6,0.2-0.6-0.3c0-0.3-0.3-0.8,0.3-1c1.7-0.7,2.3-2,2.4-3.8c0.4-7.8,0.9-15.6,1.4-23.4
		c0-0.2,0-0.4,0.2-0.6c1.2-0.9,1-2.2,0.9-3.4c-0.1-0.6-0.6-1.1-1.3-1.2c-0.3,0-0.6,0-0.9,0c-6.2,0-12.3,0-18.5,0
		c-1.9,0-2.4,0.6-2.3,2.5c0.1,0.8,0.1,1.6,0.9,2.1c0.2,0.1,0.2,0.4,0.2,0.6c0.3,4.2,0.5,8.5,0.8,12.7c0.2,3.8,0.4,7.5,0.7,11.3
		c0.1,1.5,0.8,2.6,2.2,3.1c0.6,0.2,0.4,0.7,0.4,1.1c0,0.5-0.4,0.3-0.6,0.3c-1.4,0-2.9,0-4.3,0c-0.4,0-0.5-0.1-0.5-0.5
		c0-1.8,0-3.6,0-5.4c0-0.5,0-0.9-0.2-1.4c-0.1-0.1-0.1-0.3,0-0.4c0.8-1.3,0.5-2.7,0.4-4.1c-0.1-1.1-1-1.8-2.1-1.8
		c-1.1,0-2.1,0-3.2,0c-0.6,0-0.7-0.1-0.7-0.7c0-3.9,0-7.9,0-11.8c0-5.5,0-11,0-16.5c0-0.3,0-0.6,0-1c2.3,2.4,4.4,4.6,5.6,7.6
		c0.3,0.7,0.8,1,1.3,0.8c0.5-0.2,0.7-0.7,0.4-1.5c-0.9-2.4-2.4-4.4-4.2-6.3c-1.2-1.3-2.5-2.5-3.5-4.1c1.1,0.7,2.3,1.4,3.6,1.8
		c3,0.9,5.4,0,6.7-2c0.2-0.3,0.4-0.3,0.7-0.3c11.1,0,22.3,0,33.4,0c0.7,0,0.5,0.4,0.5,0.7c0,11.6,0,23.1,0,34.7c0,3.9,0,7.7,0,11.6
		C75,68.8,74.9,69,74.3,69z M74.3,19.4c-5.4,0-10.8,0-16.1,0s-10.8,0-16.1,0c-0.4,0-0.8,0.1-0.7-0.5c0.1-0.5-0.3-1,0.7-1
		c10.8,0,21.5,0,32.3,0c0.7,0,0.8,0.2,0.7,0.8C75,19.1,75,19.4,74.3,19.4z"/>
</g>
</svg>
